<?xml version="1.0" encoding="UTF-8"?>
<svg version="1.1" viewBox="0 0 1600 1600" width="100" height="100" xmlns="http://www.w3.org/2000/svg">
<path transform="translate(776,322)" d="m0 0h40l38 1 53 4 51 6 49 9 18 5 11 5 9 6 7 7 3 5-1 7-4 9-8 16-6 8-6 5-11 3-14 1 2 11 10 29 11 33 4 22 2 18v25l-3 21-8 27-5 13-4 7 8-1 12 1 15 3 44 2h11l16-2 10-4 10-9 8-7 8-6 7-11 8-8 3-1 4 5 8 15 9 8 13 10 11 5 52 1h32l10-5v-4l1-2-9-6-7-10-1-9 5-9 4-3 5 1 5 8 5 12 1 4v22l3 13 5 23 9 38-1 5-8 7-4 1-8-6-7-7-7-9-11-10-15-8-15-4h-22l-15 4-11 7-7 7-9 14-5 15-2 9-1 16 2 21 5 17 5 10 11 14 8 8 15 11 16 7 9 2h19l12-3 16-8 11-9 7-8 10-14 7-7 4-2h7l5 3 3 9-2 8-6 20-10 24-7 17-6 8-2 1-11 1-2 4-2 6 1 22 2 30v29l-4 80-6 42-7 33-2 9-3 32 7-14 11-27 8-26 7-34 4-35 4-54 5-37 7-29 5-15 6-15 6-11 13-14 12-16 6-7 5-1 6 5 3 7 1 7-1 35-2 26-4 25-6 26-10 30-8 18-17 33-10 22-6 15-12 41-11 30-11 27-9 23-6 15v2l20-10 13-10 10-8 7-9 10-17 11-23 11-24 15-30 14-26 12-18 8-11 8-9 8-10 8-7 14-11 21-11 20-7 4-1h11l4 2-1 6-9 13-8 11-8 14-10 21-8 20-11 30-8 18-11 22-13 17-9 10-7 7-10 8-18 12-15 9-17 8-24 9-34 16-11 6-11 8-9 9-7 8-11 13-8 11-16 20-11 12-9 9-7 8-16 16-7 8-5 5h2l26-5 27-7 23-10 16-9 17-12 9-7 17-14 14-12 11-9 12-10 17-12 19-12 19-9 17-6h8l2 2 8-1 4-1h16l10 5 1 5-7 7-23 13-3 3h-2v2l-8 7-7 6-1 2h-2l-2 4-9 9-18 22-3 4h-2v2h-2l-2 4-14 13-18 13-16 9-22 7-24 5-34 4-59 5-35 4-17 4-15 6-19 10-11 9-8 9 4-1 32-2h46l35 2 46 5 6 3 1 1-1 7-8 6-16 8-17 8-24 7-26 6h-24l-25-4-24-6-27-6-16-2h-24l-15 4-28 10h-7l-2-5 3-5 16-8 24-11 25-11 12-8 9-7 9-11 8-14 5-17 2-18v-14l3-49 3-25 5-21 6-14 11-12 19-19 4-2 4 1 4 8 3 21 1 11v23l-4 35-5 25-9 24-14 27-3 9 10-4 15-11 14-12 10-9 13-13 9-11 11-13 10-17 2-10-1-21-4-26-9-44-1-15 2-26 4-8 3-3h2l1-3 2 4 4 25 4 29 5 16 6 17v-22l1-13v-38l-4-55-1-38 3-14v-2l-8 18-5 11-10 36-7 28-5 12-4 8-3 14-4 6-5-2-9-6-10-3-8-1h-106l-24 1-4 5-6 16-5 14v6l8 4 12 4 9 6 7 8 7 14 3 7 1 6v9l-7 9-10 6-21 7-37 8-28 4-45 4-41 2-34 1h-71l-48-2-47-4-33-5-41-8-16-5-12-6-7-7-2-3v-13l4-13 5-9 9-10 15-8 14-4 3-1-1-7-6-8-3-7-4-20-75-1-27-2-24-4-16-5-11-6-17-11-2 12-12 54-5 21-5 35-1 11v15l5 12 7 9 12 14 18 18 7 8 17 17 13 10 5 4 13 6-1-4-15-26-9-17-6-18-7-30-2-21v-27l1-20 3-12 4-7 3-2h6l9 6 11 12 10 16 8 16 3 11 2 24 3 72 4 20 5 13 6 10 4 5 4 3v2l4 2 11 9 13 9 15 8 20 9 18 7 11 8 3 3v2h-8l-21-4-19-6-9-2-12-1-55 9-40 7-14 2h-24l-3-2h-9l-21-5-17-6-19-8-10-7-5-6-1-4 2-3 14-3 30-3 48-4 20-1h38l6 2 9 1-5-5-10-8-16-9-17-8-21-7-40-5-59-4-28-3-23-5-24-10-15-8-17-13-12-11-14-14-7-8-12-14-15-16-11-10-15-10-15-8-5-5v-6l3-2 15-2h33l16 4 19 7 15 9 15 10 13 11 8 7 13 12 8 7 13 11 13 10 21 14 19 10 24 9 15 4 30 6 7 1-12-11-14-14-8-7-19-19-9-11-14-17-9-11-19-19-13-10-15-10-26-15-21-10-21-9-17-8-14-8-12-8-9-7-12-11-8-10-10-16-9-19-10-25-11-31-11-25-9-16-10-15-6-10-3-10 1-5 10 2 22 8 25 12 14 10 10 9 6 5 11 14 9 12 8 14 9 16 15 29 9 19 8 16 12 23 8 15 4 8 7 7 17 13 11 5 12 7-11-26-9-19-6-17-14-41-8-27-5-17-9-20-8-14-14-29-10-26-8-24-7-30-4-28-2-25-1-31 2-11h6l17 8 11 4 5 1 1-4v-165l-4-9-10-5-8-7-3-9 3-7 3-1 33-2h53l2-1h11l3 8 5 30 8 16 8 17 3 4 4-1 6-5 7-13 9-14 3-10 1-24 3-7 2-2h16l1 2 11-7 10-9 12-9 5-6 6-16 4-1 5 4 8 13 5 5 5 4v2l4 2 23 15 10 3h30l18 2 7 4 3 4 1 6-3 5-8 5-6 3-2 3 4 11 12 19 7 14 4 5 4-2 7-8 9-15 5-8 7-12-1-5-8-8v-25l-5-18-7-20-5-17-2-11-1-30 2-18 6-25 5-16 12-34 3-12v-5l-15-5-14-7-8-9-6-9-3-10v-6l-3-1-1-5 8-10 6-5 12-5 20-6 31-6 39-6 39-5 22-2zm-42 17-30 2-48 6-45 7-25 6-21 7-9 7 4 2 13 6h10l38-7 56-8 44-4 53-3 32-1h41l39 1 47 3 39 4 35 4 9-1-5-4-13-4-114-16-60-6-14-1zm26 55-47 2-35 3-23 4-17 5-11 6-5 6-11 21-10 25-7 23-4 21-2 19v24l2 19 4 16 6 15 9 16 6 8 10 5h8l1-3-3-10-11-23-9-25-4-17-1-8v-24l4-24 2-15 1-3h3l5 16 4 2 21-6 11-2h21l15 3 20 7 23 11 21 9 9 3 6 1h12l10-4 24-15 14-9 24-13 19-8 21-6 6-1h8l6 2 3 7 1 9v35l-4 26-7 27-8 22-9 20-6 12v2l9 1h9l6-2 8-7 8-11 10-17 8-14 8-20 6-20 7-36 4-17 6-12 4 2 10 10 7 14 4 11 1 6v26l-5 25-8 23-10 23-7 14v3l11-1 10-5 6-7 11-25 5-17 3-18 1-10v-29l-4-19-10-34-9-25-8-16-7-10-7-6-14-4-23-4-36-4-45-3-30-1zm-91 108-16 2-12 4-10 6-6 7-4 12v11l4 11 7 6 13 6 16 4 8 1h16l15-2 16-6 23-11 13-9 5-4-1-4-19-10-23-11-19-7-19-5zm198 30-11 4 1 5 7 9 5-1 7-6 1-6-5-5zm-73 26-7 3-4 5v11l4 6 6 4 5-1 7-8 6-10-1-4-5-4-5-2zm45 56-2 3 1 1h5l-1-4zm169 11v2h3v-2zm-554 31-2 6-1 30v132l2 14 5 5 7 1h10l11-3 6-7 5-12 3-8 5-2 3 1 5 10 4 13 1 1 8-1 6-2 1-10v-45l-2-14-5-15-13-22-30-45-10-14-9-9-7-4zm593 2-2 2v15l2 37 2 1 1-11 1-43zm-383 0-6 2-3 4-1 6 10-1 4-3-1-7zm478-22-15 15-10 7-3 5-3 14-1 18v72l1 43 6 16 8 11 8 6 10 6 8 6 1 2-6 2-12 6-8 9-9 17-4 6-7-3-8-8-7-11-5-5-6-2-7-1-35-1-6-2-3-4v-7l10-8 7-7 4-8 1-3 2-31-2-27-5-8-10-6-7-10v-6l4-3 11-3 1-2v-11l-9-3-7-6-13-19-8-8-10-7-11-5h-11l-3 5v27l-1 28v90l3 11 3 5 11 7 5 10-1 7-6 3-50 1h-43l-3-2 1-8 7-10 9-7 4-13 1-15v-92l-5 3-19 19-7 8-5 4-5 5-1 3h-2l-9 11-5 8-1 11-3 16-4 7-1 4v12l5 9 12 14 9 11 14 15 8 7 16 15 8 7 8 6 7 3 8 1h64l105-1 36-1 23-3h6l3 16 4 24 5 29 1 8v13l-5 3-9-2-6-5-9-12-9-9-8-5h-1v7l5 19 3 18 2 21v9l-3 5-3 2h-8l-8-3-13-26-4-3-15-4-9-2-8 1-3 7-1 33v46l3 9 3 3 4 1h26l20-4 16-8 10-7 10-10 14-19 15-26 9-15 10-13 4-5 5-3 6 1 3 7 4 28 4 22 4 39 1 15 1 47-1 30-4 34-2 12-6 19-2 9 7-6 9-12 11-12 12-21 6-16 8-27v-12l-1-4h2l-1-14-4-40-14-67-10-46-3-18-1-10v-45l2-15 6-24 1-9-5-2h-9l-20-4-21-7-14-6-18-12-12-10-11-14-10-17-6-14-5-19-3-24v-21l3-15 6-18 7-14 7-9 4-10 1-12-5-5-5-2zm-499 46-5 5-10 16-9 12-13 22-11 21-2 8-1 8-1 23v12l2 19 5 10 9 8 6 8 1 9-17 2-49 1-21 2-7 10-8 14-5 6-9-2-2-5-4-13-3-8-5-3-10-1-100-1-3-1-1-8 5-8 4-4 7-6 4-12 1-14 1-79 1-18-4 2-8 9-10 13-15 24-9 15-10 14-4 5-4-2-9-14-13-23-11-19-12-16-6-5h-2l1 12 1 5 1 20v79l10 6 7-4 8-2 10 1 5 5 7 10 8 14 8 17 6 26 2 22v55l-4 23-13 47-6 28-5 30-3 26-1 22 2 18 8 27 6 18 6 7 5 4 5 8 11 14 4 3 2-27 6-16 5-12 5-10 1-5 4-8 6-20 2-14 1-13v-15l-5-15-8-14-8-10-6-8-4-11v-18l4-31 6-21 5-12 9-17 7-9 8-9 18-12 16-8 17-5 17-3 25-2h10l17 5h19l8-14 5-7 3-1 4 17 5 25 7 34 5 12 5 5 2 6 4-2 49-49 11-9 9-9 11-9 10-9 17-13 10-8 11-10 8-7-2-3-7-3-5-1-18-1-9 3-3 5-1 3-7 3-3-7-11-49-6-26-3-21 2-11 1-3 4-1h12l2 5 6 17 8 16 14 14 15 9 12 6 12 3h12l7-3 4-6 1-8-4-11-9-20-8-12-9-8-14-8-21-8-17-9-9-8-9-16-6-13-2-8-4-8zm128 1-5 3-1 5 5 8 5 3h13l4-3v-8l-3-5-6-3zm140 4-8 4-14 11-18 18-8 7-12 12-3 6-1 5v8l5-2 11-9 24-24 8-7 10-9 8-9 2-6v-5zm-73 25-9 6-5 8 1 4h4l10-14zm-74 49 2 13 13 28 3 9-1 5-3 3v2l4-1 11-7 3-3-1-7-6-10-11-23-9-6zm68 81-10 7-7 8-4 8-2 13-3 39-1 63-1 18 7-4 8-10 3-6 5-25 4-22 2-20 2-3v-8l7 6 2 5 5 4 9 2 10 1h16l20 2-2-5-12-15-8-7-9-9-7-8-12-13-9-11-10-9zm557 20-8 9-4 8-9 27-6 21-4 20-8 51-2 16v5l4-4 10-18 5-8 6-13 6-18 6-28 5-45 1-21zm-595 3-8 3-7 1-19 1-9 2-13 8-5 5-9 8-11 9-6 7-5 7-3 3 71-2v9l-3 12-8 13 1 5 3 3 5 15 4 14 7 15 5 3 4-1 1-2 2-24 3-14 2-24 3-69 1-7zm-533 1-18 1 4 8 7 21 7 35 5 35 3 36 2 34 3 26 6 23 5 19 5 23 4 9 6 12h1v-51l-4-30-5-30-4-48-1-18v-34l3-48v-21l-2-1-15-1zm-49 9 4 34 5 23 6 20 12 34 5 14 7 10 7 13h1v-10l-3-13-8-48-10-51-5-14-7-12zm102 0-3 21-4 39v40l1 19 1 39 1 14 2 10 2-1 1-9 10-25 6-19 2-18-1-28-3-40-3-22-8-16zm973 1-5 2-9 28-3 16-1 13v13l3 28 6 31 7 36 7 14 2-25 1-10 2-29v-49l-2-27-1-41zm-612 66-10 3-8 6-14 12-19 19-10 13-7 11-8 16-2 8-1 14v24l1 56 3 5 5 1 8-6 7-9 16-42 6-17 11-27 7-18 6-17 10-29 5-11 2-6-1-5zm324 4-7 2-3 3-1 3v9l8 11 8 10 6 9 8 9 2-1 1-14-4-20v-10l-3-6-5-4-3-1zm-516 9-12 3-10 5-10 9-6 5-9 19-3 11-1 9v10l2 20 5 15 8 17 7 9 9 10 11 8 17 8 13 3 7 1h9l9-2 5-5 4-15v-39l1-19-4-14-10-13-7-9-5-10-1-4 28 2 5-2-1-8-4-7-13-9-15-6-9-2zm421 2-18 3-16 7-16 12-6 9-7 13-2 3-18 4-6 4v11l6 11 7 12 8 19 7 8 6-4 8-11 10-15 14-22 12-19 7-11 14-23 2-6v-5zm180 1-7 3-2 3v6l4 6 5 3h14l11-1 7-3 1-2-1-10-2-2-19-3zm-106 20-9 11-8 13-14 22-8 11-5 9-15 24-8 11-7 12-7 11-5 11v3l14 1 14-2 18-5 17-9 10-9 13-13 9-11 10-11 9-4 6-1 3 7-1 9-5 19-7 13-5 10-9 25-2 9-5 7-4 9-2 4-5 2-10-10-9-3h-7l-8 3 4 6 6 5 9 5 7 7 7 12-7 4-14 3-44 5-48 4-39 2h-55l-29-1-53-5-24-3-8-6-2-6 6-8 12-11 12-12v-2l-3-1-32 1-19-1h-13l-2 3 5 20 5 13 7 11 7 9 9 4 22 4 63 7 34 2h88l40-2 35-3 26-4 17-4 11-6 11-14 5-12 3-12 4-12v-7l-2-5 4-11 9-13 6-16 2-10v-32l-3-22-4-11-6-15-10-18-7-12-7-8zm-267 18-2 1v2h-2l-3 7 1 14 5 3 13 3 1-4-3-11-7-14zm-588 4 8 16 5 11 7 19 3 16 5 21 8 21 7 13 11 16 5 5h2v2l8 7 15 11 21 10 5 3 2-1-3-5-5-13-8-16-12-26-8-16-10-19-5-9-10-15-14-19-12-14-16-13-7-5zm1357 4-13 5-8 6-8 10-7 7-7 11-10 14-10 17-8 13-16 32-14 31-4 12-5 7 3 1 16-8 12-7 12-9 13-12 8-11 10-18 9-24 9-33 12-31 7-11zm-133 15 1 2zm-1 2 1 2zm-1 3m-7 16m-1026 18m979 0m-600 2-5 6-11 24-5 15-1 11 5 10 9 10 4 6 2 7 5-3 38-38 12-17-2-5-12-12-9-5-16-7-7-2zm-3 89m73 5-1 5 8 10 9 10 8 4 7 1h21l14-3 8-5 9-10 3-4v-5h-7l-14 3h-19l-25-4-7-2zm528 9 1 3 1-3zm-980 48m922 8 1 3zm-761 3-1 5v24l2 31 4 24 6 16 7 13 4 4v-6l-1-4 1-1v-40l-2-40-4-10-9-10zm661 0-6 3-4 4-8 23-3 18-2 23-1 27v26l2 4 16-40 4-15 4-26 4-32v-7l-2-7zm291 14-16 8-20 9-11 7-14 10-14 12-13 11-10 8-11 9-14 11-7 6-11 8-8 6-3 3 27-2 21-4 23-11 12-9 11-9 11-11 9-11 10-13 6-8 11-11 10-13 3-6zm-843 1-17 7 1 3 11 6 7 4 16 6 23 5 42 7 19 2 52 3h72l54-3 40-4 46-6 23-4 29-9 15-6 17-9-1-2-22 7-26 5-32 5-28 3-32 2-36 1h-76l-59-2-35-2-41-5-36-6-15-4-9-4zm-394 3 3 5 13 15 12 14 9 10 9 11 11 12h2v2l8 7 10 8 14 8 17 7 19 3 13 1h11l-5-4-11-8-15-10-11-8-16-13-10-9-11-9-16-13-18-13-13-8-23-8zm922 110m-641 79-26 3-11 1-1 3h-3l-1-2-8 1 3 3 5-1v3l3 2h5l5-2v3l11-1 11-2 8-3v-3l-10 1 7-2h10l2-4zm665 0-1 4h11l2-1 8 1h16l1 4 2-3v2l5 3h8l2-3h-4l-1-3-20-3-18-1zm59 4-2 1v2l8 1-2-4zm-721 1m666 0m9 0-7 1 2 1 1 3 16 3 11 1 4 1 3-3-5-3-8-2-5-1h-8z" fill="#080607"/>
<path transform="translate(776,322)" d="m0 0h40l38 1 53 4 51 6 49 9 18 5 11 5 9 6 7 7 3 5-1 7-4 9-8 16-6 8-6 5-11 3-14 1 2 11 10 29 11 33 4 22 2 18v25l-3 21-8 27-5 13-4 7 8-1 12 1 15 3 44 2h11l16-2 10-4 10-9 8-7 8-6 7-11 8-8 3-1 4 5 8 15 9 8 13 10 11 5 52 1h32l10-5v-4l1-2-9-6-7-10-1-9 5-9 4-3 5 1 5 8 5 12 1 4v22l3 13 5 23 9 38-1 5-8 7-4 1-8-6-7-7-7-9-11-10-15-8-15-4h-22l-15 4-11 7-7 7-9 14-5 15-2 9-1 16 2 21 5 17 5 10 11 14 8 8 15 11 16 7 9 2h19l12-3 16-8 11-9 7-8 10-14 7-7 4-2h7l5 3 3 9-2 8-6 20-10 24-7 17-6 8-2 1-11 1-2 4-2 6 1 22 2 30v29l-4 80-6 42-7 33-2 9-3 32 7-14 11-27 8-26 7-34 4-35 4-54 5-37 7-29 5-15 6-15 6-11 13-14 12-16 6-7 5-1 6 5 3 7 1 7-1 35-2 26-4 25-6 26-10 30-8 18-17 33-10 22-6 15-12 41-11 30-11 27-9 23-6 15v2l20-10 13-10 10-8 7-9 10-17 11-23 11-24 15-30 14-26 12-18 8-11 8-9 8-10 8-7 14-11 21-11 20-7 4-1h11l4 2-1 6-9 13-8 11-8 14-10 21-8 20-11 30-8 18-11 22-13 17-9 10-7 7-10 8-18 12-15 9-17 8-24 9-34 16-11 6-11 8-9 9-7 8-11 13-8 11-16 20-11 12-9 9-7 8-16 16-7 8-5 5h2l26-5 27-7 23-10 16-9 17-12 9-7 17-14 14-12 11-9 12-10 17-12 19-12 19-9 17-6h8l2 2 8-1 4-1h16l10 5 1 5-7 7-23 13-3 3h-2v2l-8 7-7 6-1 2h-2l-2 4-9 9-18 22-3 4h-2v2h-2l-2 4-14 13-18 13-16 9-22 7-24 5-34 4-59 5-35 4-17 4-15 6-19 10-11 9-8 9 4-1 32-2h46l35 2 46 5 6 3 1 1-1 7-8 6-16 8-17 8-24 7-26 6h-24l-25-4-24-6-27-6-16-2h-24l-15 4-28 10h-7l-2-5 3-5 16-8 24-11 25-11 12-8 9-7 9-11 8-14 5-17 2-18v-14l3-49 3-25 5-21 6-14 11-12 19-19 4-2 4 1 4 8 3 21 1 11v23l-4 35-5 25-9 24-14 27-3 9 10-4 15-11 14-12 10-9 13-13 9-11 11-13 10-17 2-10-1-21-4-26-9-44-1-15 2-26 4-8 3-3h2l1-3 2 4 4 25 4 29 5 16 6 17v-22l1-13v-38l-4-55-1-38 3-14v-2l-8 18-5 11-10 36-7 28-5 12-5 11h-1l-2-17 10-21 6-16 2-7 6-15 1-2v-8l-5-8-12-5-1-4 10-17 12-16 5-6 5-3 6 1 3 5 2 12 5 29 3 19 3 32 1 15 1 47-1 30-4 34-2 12-6 19-2 8 8-9 7-9 10-11 12-21 6-16 8-27v-16h2l-4-31-2-23-14-67-10-46-3-18-1-10v-45l2-15 6-24 1-9-4-1h-9l-20-4-21-7-14-6-18-12-13-11-11-14-10-17-6-14-5-19-3-24v-21l3-15 6-18 7-14 7-9 4-10 1-12-4-4-5-2h-5l-9 9-4 5-11 7-3 5-3 14-1 18v72l1 43 6 16 8 11 10 7 10 6 6 5v2l-16 8-7 6-6 11-5 9-5 7-7-3-9-9-7-11-4-4-6-2-7-1-35-1-6-2-4-5v-7l11-9 8-9 3-8 2-31-2-27-4-6v-2l-5-2-6-4-7-10v-6l5-4 6-2h5l1-13-7-1-6-4-7-8-10-15-7-7-10-7-11-5h-11l-2 4v27l-1 28v90l3 11 2 5 5 2 7 5 5 10-1 7-4 3-3 1-50 1h-43l-4-3 1-8 7-10 9-7 4-13 1-15v-91l-8 7-14 14-7 8-4 4h-2l-1 3-5 5h-2l-2 4-8 10-10 5v-8l1-10-3-4 14-10 26-26 8-7 10-9 7-8 3-11-9 3-12 9-10 9-13 13-8 7-13 13-5 1-2 6-4-2-9-11-2-5 10-14v-3l-4 2v-15l1-4v-4-4l-3-2-1-6h3l3 2-1-1v-2l-6-2-5-12-5-19-4-20v-4l-8-2-6 7-7 1-28-1h-26l-19 1-15 3-20 8-7 3-3 1-4-1-4-4v-2l4-3-6-3-12-1-6 1v-3l-11-1-6-1-4-10-9-19-9-25-4-17-1-8v-24l4-24 2-15 2-4 4 1 5 16 3 1 21-6 11-2h21l15 3 20 7 23 11 21 9 9 3 6 1h12l10-4 24-15 14-9 24-13 19-8 21-6 6-1h8l7 3 3 7 1 9v35l-4 26-7 27-8 22-9 20-7 14h18l6-2 8-7 10-15 13-22 7-16 8-24 7-34 3-16 4-12 5-8 4 2 11 11 7 14 4 11 1 6v26l-5 25-8 23-10 23-7 14-1 3 14-3 8-5 4-5 11-25 5-17 3-18 1-10v-29l-4-19-10-34-9-25-8-16-7-10-6-5-14-4-23-4-36-4-45-3-30-1h-65l-47 2-35 3-23 4-17 5-11 6-4 5-11 21-10 25-7 23-4 21-2 19v24l2 19 4 16 6 15 9 16 6 11v6l-3-1-3-5v-2l-7 2-13-7-5-16-7-21-5-19-1-6-1-30 2-18 6-25 5-16 12-34 3-12v-5l-15-5-14-7-8-9-6-9-3-10v-6l-3-1-1-5 8-10 6-5 12-5 20-6 31-6 39-6 39-5 22-2zm-42 17-30 2-48 6-45 7-25 6-21 7-9 7 4 2 13 6h10l38-7 56-8 44-4 53-3 32-1h41l39 1 47 3 39 4 35 4 9-1-5-4-13-4-114-16-60-6-14-1zm-65 163-16 2-12 4-10 6-6 7-4 12v11l4 11 7 6 13 6 16 4 8 1h16l15-2 16-6 23-11 13-9 5-4-1-4-19-10-23-11-19-7-19-5zm198 30-11 4 1 5 7 9 5-1 7-6 1-6-5-5zm-73 26-7 3-4 5v11l4 6 6 4 5-1 7-8 6-10-1-4-5-4-5-2zm45 56-2 3 1 1h5l-1-4zm169 11v2h3v-2zm39 33-2 2v15l2 37 2 1 1-11 1-43zm342 204-8 9-4 8-9 27-6 21-4 20-8 51-2 16v5l4-4 10-18 5-8 6-13 6-18 6-28 5-45 1-21zm-102 14-5 2-9 28-3 16-1 13v13l3 28 6 31 7 36 7 14 2-25 1-10 2-29v-49l-2-27-1-41zm193 128-13 5-8 6-8 10-7 7-7 11-10 14-10 17-8 13-16 32-14 31-4 12-5 7 3 1 16-8 12-7 12-9 13-12 8-11 10-18 9-24 9-33 12-31 7-11zm-133 15 1 2zm-1 2 1 2zm-1 3m-7 16m-47 18m-2 105 1 3 1-3zm-58 56 1 3zm-100 3-6 3-4 4-8 23-3 18-2 23-1 27v26l2 4 16-40 4-15 4-26 4-32v-7l-2-7zm291 14-16 8-20 9-11 7-14 10-14 12-13 11-10 8-11 9-14 11-7 6-11 8-8 6-3 3 27-2 21-4 23-11 12-9 11-9 11-11 9-11 10-13 6-8 11-11 10-13 3-6zm-315 114m24 79-1 4h11l2-1 8 1h16l1 4 2-3v2l5 3h8l2-3h-4l-1-3-20-3-18-1zm59 4-2 1v2l8 1-2-4zm-55 1m9 0-7 1 2 1 1 3 16 3 11 1 4 1 3-3-5-3-8-2-5-1h-8z" fill="#080607"/>
<path transform="translate(438,581)" d="m0 0 5 1 7 9 6 10 8 6v2l4 2 23 15 10 3h30l18 2 7 4 3 4 1 6-3 5-8 5-6 3-2 3 4 11 12 19 7 14 4 5 4-2 7-8 9-15 5-8 7-12-1-5-8-8v-29l13 6 6-1 4 7 2 1-2-8v-3l11 6h8v-6l11 1 5 1v3l6-2 12 1 6 3v3l-4 1 5 6 3-1 1 1 2-2 5-1 12-5 13-5 12-2 19-1h31l28 1 5-4 3-4 6 2 2 1 4 17 3 16 6 18 1 4 6 2v2h2l-1 2-5-3 1 6 4 3-3 6 2 1-1 4-1 15-5 5-4 6 1 4 3 1 6 9 6 7h2l2-6 5-1-3 19 3 1 1 7-1 5v7l6-4 2 1-2 4-1 11-3 16-4 7-1 4v12l5 9 12 14 9 11 13 14 8 7 16 15 8 7 8 6 7 3v1h-8l-19-2-6-1-7-9-3-3v-2l-4-2-14-14-7-8-12-13-9-11-9-8-3-1-10 7-6 7-4 8-2 13-3 39-1 63-1 17 7-5 3-3 1 9 2 9 3 1-5 4v11l6 11 7 12 8 19 6 7 3-1 1 5-3 7-6 7-7 12-6 11-3 6h-2l-8-18-3-8-6-15-12-39-5-15v-19h2l2-26 3-14 2-24 3-69 2-7-9 2-5 2-7 1-19 1-9 2-4 1 2-5 6-5 10-5 26-11 11-5 12-6 12-11 6-10 8-19 2-7v-15l-4-11-7-14-6-7-17-11-15-8-14-5-19-6-33-10-12-6-10-8-3-6v-7l3-7 7-6 12-5 18 1h18l5 1 4-1 15 2-1 3-7 1-1 9 6 2 8 5v2l5 2 6 3h11l5 1 3-2v-9l-5-21-7-18h-39l-51 1-13 3-12 7-9 8-10 15-3 3v11l1 9 1 6 4 6 8 9 11 9 9 6 16 8 20 8 21 6 15 6 14 7 9 7 10 9 7 3 1 6v8l-6 12-11 13-14 10-13 7-11 7-8 4-2-1 2-2 3-7 2-5h-25l-16-4-15-6-13-10-4-5-10-14-7-10-6-14v-2h-2l9 27 3 10 4 22 1 13 14 2 29 8 21 3 4-1-2 4-5 5-11 5-5-3-9-3-18-1-9 3-4 8-7 3-4-8-11-49-6-26-3-21 2-11 4-4 2-1h10l4 4 7 19 8 16 13 13 15 9 12 6 12 3h12l7-2 2-4 2-5-1-9-11-25-9-14-8-7-14-8-21-8-17-9-10-9-9-16-6-13-2-8-3-6v-2h-10l-5 5-8 14-8 10-15 25-11 21-2 8-1 8-1 23v12l2 19 5 10 9 8 6 8 1 7-1 2-6 2-11 1-49 1-21 2-7 11-7 12-6 7-9-3-5-10-4-14-2-3-13-2-100-1-4-2-1-8 5-8 5-5 6-5 4-12 1-14 1-79 2-18-8 7-7 9-10 14-14 23-10 16-10 13h-4l-9-12-12-22-10-17-7-11-9-12-7-5 3 17 1 20v79l9 5 7-4h3l1 12 1 7-2 5-6 10-2 5h-1v-6l-17-1h-30l-5-3-9-1-1 2-1 11-3-1v-8l-7 1-4-9 1-9 6-9h2l-1-6 5 1 7 2 1-4v-165l-4-9-10-5-8-7-3-9 3-7 3-1 33-2h53l2-1h11l3 8 5 30 8 16 8 17 3 4 4-1 6-5 7-13 9-14 3-10 1-24 3-7 2-2h16l1 2 11-7 10-9 12-9 5-6 6-16zm16 75-2 6-1 30v132l2 14 5 5 7 1h10l11-3 6-7 5-12 3-8 5-2 3 1 5 10 4 13 1 1 8-1 6-2 1-10v-45l-2-14-5-15-13-22-30-45-10-14-9-9-7-4zm210 2-6 2-3 4-1 6 10-1 4-3-1-7zm107 25-5 3-1 5 5 8 5 3h13l4-3v-8l-3-5-6-3zm-7 78 2 13 13 28 3 9-1 5-3 3v2l4-1 11-7 3-3-1-7-6-10-11-23-9-6z" fill="#080607"/>
<path transform="translate(1399,822)" d="m0 0 5 1 5 6 2 5 1 7-1 35-2 26-4 25-6 26-10 30-8 18-17 33-10 22-6 15-12 41-11 30-11 27-9 23-6 15v2l20-10 13-10 10-8 7-9 10-17 11-23 11-24 15-30 14-26 12-18 8-11 8-9 8-10 8-7 14-11 21-11 20-7 4-1h11l4 2-1 6-9 13-8 11-8 14-10 21-8 20-11 30-8 18-11 22-13 17-9 10-7 7-10 8-18 12-15 9-17 8-24 9-34 16-11 6-11 8-9 9-7 8-11 13-8 11-16 20-11 12-9 9-7 8-16 16-7 8-5 5h2l26-5 27-7 23-10 16-9 17-12 9-7 17-14 14-12 11-9 12-10 17-12 19-12 19-9 17-6h8l2 2 8-1 4-1h16l10 5 1 5-7 7-23 13-3 3h-2v2l-8 7-7 6-1 2h-2l-2 4-9 9-18 22-3 4h-2v2h-2l-2 4-14 13-18 13-16 9-22 7-24 5-34 4-59 5-35 4-17 4-15 6-19 10-11 9-8 9 4-1 32-2h46l35 2 46 5 6 3 1 1-1 7-8 6-16 8-17 8-24 7-26 6h-24l-25-4-24-6-27-6-16-2h-24l-15 4-28 10h-7l-2-5 3-5 16-8 24-11 25-11 12-8 9-7 9-11 8-14 5-17 2-18v-14l3-49 3-25 5-21 6-14 11-12 19-19 4-2 4 1 4 8 3 21 1 11v23l-4 35-5 25-9 24-14 27-3 9 10-4 15-11 14-12 10-9 13-13 9-11 11-13 10-17 2-10-1-21-4-26-9-44-1-15 2-26 4-8 3-3h2l1-3 2 4 4 25 4 29 5 16 6 17v-22l1-13v-38l-4-55-1-38 3-14v-2l-8 18-5 11-10 36-7 28-5 12-5 11h-1l-2-17 10-21 6-16 2-7 6-15 1-2v-8l-5-8-12-5-1-4 10-17 12-16 5-6 5-3 6 1 3 5 2 12 5 29 3 19 3 32 1 15 1 47-1 30-4 34-2 12-6 19-2 8 8-9 7-9 10-11 12-21 6-16 8-27v-16h2l-4-31-2-23-14-67-10-46-3-18-1-10v-45l2-15 6-24 2-6 9-3 7-1-4 27-1 9-3 16-1 13v13l3 28 6 31 7 36 5 10 2-21 1-10 2-29v-49l-2-27v-41l-11 2-3 9h-1l1-10 3-6 22-2h10l1 3 2 1-3 7 1 22 2 30v29l-4 80-6 42-7 33-2 9-3 32 7-14 11-27 8-26 7-34 4-35 4-54 5-37 7-29 5-15 6-15 6-11 13-14 12-16 6-7zm-10 40-8 9-4 8-9 27-6 21-4 20-8 51-2 16v5l4-4 10-18 5-8 6-13 6-18 6-28 5-45 1-21zm91 142-13 5-8 6-8 10-7 7-7 11-10 14-10 17-8 13-16 32-14 31-4 12-5 7 3 1 16-8 12-7 12-9 13-12 8-11 10-18 9-24 9-33 12-31 7-11zm-133 15 1 2zm-1 2 1 2zm-1 3m-7 16m-47 18m-2 105 1 3 1-3zm-58 56 1 3zm-100 3-6 3-4 4-8 23-3 18-2 23-1 27v26l2 4 16-40 4-15 4-26 4-32v-7l-2-7zm291 14-16 8-20 9-11 7-14 10-14 12-13 11-10 8-11 9-14 11-7 6-11 8-8 6-3 3 27-2 21-4 23-11 12-9 11-9 11-11 9-11 10-13 6-8 11-11 10-13 3-6zm-315 114m24 79-1 4h11l2-1 8 1h16l1 4 2-3v2l5 3h8l2-3h-4l-1-3-20-3-18-1zm59 4-2 1v2l8 1-2-4zm-55 1m9 0-7 1 2 1 1 3 16 3 11 1 4 1 3-3-5-3-8-2-5-1h-8z" fill="#FDFDFD"/>
<path transform="translate(194,825)" d="m0 0h6l17 8 4 1 1 7-4 4-4 8 1 9 2 5 8-1-1 9-11 1 4 33 5 23 6 20 12 34 5 14 7 10 6 11v-8l-3-13-8-48-10-51-5-14-5-9v-13l2-3 9 1 5 3 4 6 8 24 7 35 5 35 3 36 2 34 3 26 6 23 5 19 5 23 4 9 5 11v-50l-4-30-5-30-4-48-1-18v-34l4-63 4-8 5-8 1-5-2-15 1-4 10-1 7 2 8 10 9 15 10 21 6 26 2 22v55l-4 23-13 47-6 28-5 30-3 26-1 22 2 18 8 27 6 18 5 6 6 5 5 8 11 14 2 2 2-26 6-16 5-12 5-10v-5l3-3 7-21 3-18 1-13v-15l-5-15-8-14-8-10-6-8-4-11v-18l3 2 4 10 7 18 3 11 8 9 9 11 9 10 5 5 5 6 1 5-8 37-11 47-5 35-1 11v15l5 12 7 9 12 14 18 18 7 8 17 17 13 10 5 4 13 6-1-4-15-26-9-17-6-18-7-30-2-21v-27l1-20 3-12 4-7 3-2h6l9 6 11 12 10 16 8 16 3 11 2 24 3 72 4 20 5 13 6 10 4 5 4 3v2l4 2 11 9 13 9 15 8 20 9 18 7 11 8 3 3v2h-8l-21-4-19-6-9-2-12-1-55 9-40 7-14 2h-24l-3-2h-9l-21-5-17-6-19-8-10-7-5-6-1-4 2-3 14-3 30-3 48-4 20-1h38l6 2 9 1-5-5-10-8-16-9-17-8-21-7-40-5-59-4-28-3-23-5-24-10-15-8-17-13-12-11-14-14-7-8-12-14-15-16-11-10-15-10-15-8-5-5v-6l3-2 15-2h33l16 4 19 7 15 9 15 10 13 11 8 7 13 12 8 7 13 11 13 10 21 14 19 10 24 9 15 4 30 6 7 1-12-11-14-14-8-7-19-19-9-11-14-17-9-11-19-19-13-10-15-10-26-15-21-10-21-9-17-8-14-8-12-8-9-7-12-11-8-10-10-16-9-19-10-25-11-31-11-25-9-16-10-15-6-10-3-10 1-5 10 2 22 8 25 12 14 10 10 9 6 5 11 14 9 12 8 14 9 16 15 29 9 19 8 16 12 23 8 15 4 8 7 7 17 13 11 5 12 7-11-26-9-19-6-17-14-41-8-27-5-17-9-20-8-14-14-29-10-26-8-24-7-30-4-28-2-25-1-31zm120 50-3 21-4 39v40l1 19 1 39 1 14 2 10 2-1 1-9 10-25 6-19 2-18-1-28-3-40-3-22-8-16zm-191 125 8 16 5 11 7 19 3 16 5 21 8 21 7 13 11 16 5 5h2v2l8 7 15 11 21 10 5 3 2-1-3-5-5-13-8-16-12-26-8-16-10-19-5-9-10-15-14-19-12-14-16-13-7-5zm189 58m-3 153m161 11-1 5v24l2 31 4 24 6 16 7 13 4 4v-6l-1-4 1-1v-40l-2-40-4-10-9-10zm-285 18 3 5 13 15 12 14 9 10 9 11 11 12h2v2l8 7 10 8 14 8 17 7 19 3 13 1h11l-5-4-11-8-15-10-11-8-16-13-10-9-11-9-16-13-18-13-13-8-23-8zm281 189-26 3-11 1-1 3h-3l-1-2-8 1 3 3 5-1v3l3 2h5l5-2v3l11-1 11-2 8-3v-3l-10 1 7-2h10l2-4z" fill="#FDFDFD"/>
<path transform="translate(776,322)" d="m0 0h40l38 1 53 4 51 6 49 9 18 5 11 5 9 6 7 7 3 5-1 7-4 9-8 16-6 8-6 5-11 3-14 1 2 11 10 29 11 33 4 22 2 18v25l-3 21-8 27-5 13-6 9-1-2h-3v2l2 1-4 1h-7l-3-3v-2h-2l10-20 7-19 4-18 2-18v-29l-4-19-10-34-9-25-8-16-7-10-6-5-14-4-23-4-36-4-45-3-30-1h-65l-47 2-35 3-23 4-17 5-11 6-4 5-11 21-10 25-7 23-4 21-2 19v24l2 19 4 16 6 15 9 16 6 11v6l-3-1-3-5v-2l-7 2-13-7-5-16-7-21-5-19-1-6-1-30 2-18 6-25 5-16 12-34 3-12v-5l-15-5-14-7-8-9-6-9-3-10v-6l-3-1-1-5 8-10 6-5 12-5 20-6 31-6 39-6 39-5 22-2zm-42 17-30 2-48 6-45 7-25 6-21 7-9 7 4 2 13 6h10l38-7 56-8 44-4 53-3 32-1h41l39 1 47 3 39 4 35 4 9-1-5-4-13-4-114-16-60-6-14-1z" fill="#FDFDFD"/>
<path transform="translate(902,467)" d="m0 0h8l7 3 3 7 1 9v35l-4 26-7 27-8 22-9 20-5 10-11 1h-28l-1 7-2 31-3 10-1 3-1 4-5 6-4-2-1-6h3l3 2-1-1v-2l-6-2-5-12-5-19-4-20v-4l-8-2-6 7-7 1-28-1h-26l-19 1-15 3-20 8-7 3-3 1-4-1-4-4v-2l4-3-6-3-12-1-6 1v-3l-11-1-6-1-4-10-9-19-9-25-4-17-1-8v-24l4-24 2-15 2-4 4 1 5 16 3 1 21-6 11-2h21l15 3 20 7 23 11 21 9 9 3 6 1h12l10-4 24-15 14-9 24-13 19-8 21-6zm-233 35-16 2-12 4-10 6-6 7-4 12v11l4 11 7 6 13 6 16 4 8 1h16l15-2 16-6 23-11 13-9 5-4-1-4-19-10-23-11-19-7-19-5zm198 30-11 4 1 5 7 9 5-1 7-6 1-6-5-5zm-73 26-7 3-4 5v11l4 6 6 4 5-1 7-8 6-10-1-4-5-4-5-2zm45 56-2 3 1 1h5l-1-4z" fill="#FDFDFD"/>
<path transform="translate(792,1336)" d="m0 0h12l22 2 17 4 14 5 15 10 10 9 7 6 10 13 8 13 6 14 5 15 3 16v17l-3 15-6 16-8 16-8 12-8 10-13 13-10 6-16 8-14 5-15 3-8 1h-26l-17-3-16-6-15-9-9-7-10-9-8-8-7-10-11-21-5-14-2-11v-19l2-17 4-16 6-15 12-20 10-10 2-3h2v-2l13-10 11-7 16-7 16-4zm5 13-19 2-18 6-12 7-12 11-11 11-9 13-6 12-5 15-3 13-1 11v24l3 10 4-2 8-13 6-16 6-9 9-11 8-8 10-7 16-8 12-4 7-1h22l20 4 16 7 14 9 7 7 10 13 13 21 11 12 2-4 1-10-1-19-4-20-6-18-8-15-9-11-10-10-15-10-14-6-17-4-21-2z" fill="#FDFDFD"/>
<path transform="translate(589,1148)" d="m0 0 6 2 4 5 2 1v3l3 1v3h2l2 4 3 3 6 18 8 13 7 9 12 4 26 4 55 6 34 2h88l40-2 35-3 26-4 17-4 11-6 10-13 5-12 3-12 4-9 6-8 8-4h6l2 7-4 8-5 13-5 14v6l8 4 12 4 9 6 7 8 7 14 3 7 1 6v9l-7 9-10 6-21 7-37 8-28 4-45 4-41 2-34 1h-71l-48-2-47-4-33-5-41-8-16-5-12-6-7-7-2-3v-13l4-13 5-9 9-10 15-8 14-4 3-1-1-7-6-8-3-7-4-20-3-1zm-10 89-17 7 1 3 11 6 7 4 16 6 23 5 42 7 19 2 52 3h72l54-3 40-4 46-6 23-4 29-9 15-6 17-9-1-2-22 7-26 5-32 5-28 3-32 2-36 1h-76l-59-2-35-2-41-5-36-6-15-4-9-4z" fill="#FDFDFD"/>
<path transform="translate(1306,578)" d="m0 0 5 1 5 8 5 12 1 4v22l3 13 5 23 9 38-1 5-8 7-4 1-8-6-7-7-7-9-11-10-15-8-15-4h-22l-15 4-11 7-7 7-9 14-5 15-2 9-1 16 2 21 5 17 5 10 11 14 8 8 15 11 16 7 9 2h19l12-3 16-8 11-9 7-8 10-14 7-7 4-2h7l5 3 3 9-2 8-6 20-10 24-7 17-6 8-2 1-11 1v2h-3l-1-2h-10l-22 2-3 10-2 12-3 7-1-4 4-25 1-2-16 4-1-3-4-1h-9l-20-4-21-7-14-6-18-12-13-11-11-14-10-17-6-14-5-19-3-24v-21l3-15 6-18 7-14 7-9 5-12 3 2 4-1 25-16 21-10 5-3 57 1h32l10-5v-4l1-2-9-6-7-10-1-9 5-9z" fill="#080607"/>
<path transform="translate(399,630)" d="m0 0 2 1 2 5 2 3 3-4 8-2 32-1-1 7-5 25-1 42-1 78v41l1 20 2 7 9 4 2 2-15-1-9-2h-10l-19 2-9 1 3-5 4-5 1-5 3-48 1-45v-78h-3l-1-5 2-10h-2l-1 7-8 16-10 18-4 5-9 16-9 14-12 18-8 13-8 11-3-3-8-16-10-18-11-22-14-24-8-16-5-9-3-1-1 3v58l1 43v70l1 13-1 5-6 2h-14l-12-6 2-4 3-1 1-6 1-21v-125l-1-39-3-8-3-5 1-3h28l21-2 10 4 5 10 3 10 9 17 12 26 7 16 2 2 5 2v3l5-2 2-4 7-10 9-13 13-22 6-10 10-19 5-12 1-7z" fill="#CCA110"/>
<path transform="translate(768,638)" d="m0 0h39l4 8 6 18 3 14v9l-4 3-6-1h-10l-6-3-5-3-4-4-10-5-1-5 2-4 7-2 1-2-15-1-3-1-1 2-9-1h-20l-12-1-12 5-7 6-2 6v7l5 8 10 7 12 5 30 9 19 6 14 5 17 9 12 8 8 7 6 10 6 14 1 4v15l-6 17-8 16-9 10-11 8-17 7-12 6-22 9-5 2-2 4-3 3-2 4-9 6h-2l-2 4-9 8-11 9-6 8-5 1-18 6-6 5-4 12-4 9-10 5-11 10-8 7-16 16-10 13-7 11-9 17-7 7-1-2 2-12 4-5 5-4 5-8 1-5-1-4-4-3-6 2 6-7 38-38 11-9 9-9 11-9 10-9 17-13 10-8 11-10 9-7 11-6h2l2-4 2-3-4 2-21-3-33-9-10-2-1-2-2-15-4-23-7-19-3-10v-3h2l4 8 4 10 12 16 7 10 10 8 10 5 15 5 9 2 25 1-1 5-4 8 4-1 11-6 11-7 11-6 11-9 10-13 4-9v-14l-7-2-13-12-15-9-20-8-27-8-14-6-16-8-9-6-14-12-9-11-2-4v-10l-1-3v-11l3-1 2-5 10-14 11-9 12-6 10-2z" fill="#CCA111"/>
<path transform="translate(474,926)" d="m0 0h31l21 2 11 2 12 1 4 2 4 9 6 21 2 10-4 1-11-9-10-9-14-8-11-3-9-1h-22l-16 3-14 6-14 11-8 9-7 14-4 15-1 10v25l3 20 5 15 9 15 9 11 2 4 4 2 11 9 14 7 19 5 15 2h22l9-2 5-11 1-6 2-45v-13l-2-23-5-21-5-10v-2l7-1 13 4 10 1 3-6 9 3 7 3v7l-3 9v18l3 12v15l-1 25v21l1 13v22l-1 2-9 1-2 1-13 1-28 1h-18l-23-3-36-8-17-7-15-8-5-3-7-8-6-9-4-5v-2h-2l-6-12-6-10-6-15-2-11v-27l4-17 8-20 11-16 11-12 10-8 13-8 19-7 10-3z" fill="#CBA111"/>
<path transform="translate(748,1083)" d="m0 0h3l2 6 1 22-2 12-3 7-9 11-2 4 1 5 6 3 13 2h3l1 5 7 9 8 9 8 4 7 1h21l14-3 8-5 11-13 1-5 5-2h62l23 2 7 8 11 6 8 8 7 12-8 5-14 3-44 5-48 4-39 2h-55l-29-1-53-5-24-3-8-6-3-5 2-5 7-8 8-7 14-14 9-7 4-4 1 3 8-7 33-33 12-17 1-4z" fill="#FDFDFD"/>
<path transform="translate(726,925)" d="m0 0 10 1 6 5 5 14 7 26 12 31 11 31 6 15 8 24 5 16 13 37 3 7v5l-5 2-25 2-8 6-6 1v-2l-5-2-1-2 6-10 2-6v-8l-3-16-6-12-6-8-9-16v-2l-5-1-14-7-19-5-10-2-6-2h-6l-3 1-4 1-7 18-9 27-6 19-2 9v24l-3 3-13-1-13-3-5 3-4 1 1-6 7-12 6-13 12-29 12-31 9-25 16-43 11-25 7-19 2-8-2 1-3-3 2-4 5-2 5-3h11l4 2v-3zm-15 71-2 1v2h-2l-3 7 1 14 5 3 13 3 1-4-3-11-7-14z" fill="#CCA110"/>
<path transform="translate(1077,928)" d="m0 0h37l48 4 2 2 10 30 2 19-7-6-3-3v-2l-4-2-12-9-15-8-14-5-16-2h-15l-11 1-6 3-4 5-4 13v23l35 2h17l4-1 2-12 4 1 2 6 4 15 4 20 5 8-1 3-9-8-9-11-3-3-13-4-6-1-35-2v101l1 19h17l11 1h29l16-2 12-5 9-7 15-16 6-7 9-14 5-2 1 1v8l-6 16-9 22-3 7v2l2 1-4 6-6 2-3 5-16 2-17 1h-43l-39-1h-21l-7-1-3-8-2-6-4-4v-18l1-11h2v-2l4 1 1 7v25l2-1 1-4v-20l-1-13 1-27v-18l-1-10h2v-10l1-10-1-6v-47l-2-15-5-12v-4l6-1z" fill="#CBA010"/>
<path transform="translate(950,635)" d="m0 0h12l2 1 36 3 13 1h8l7 4 5 28 4 17-1 3-7-9-9-7-16-8-15-4-10-2h-16l-2 3v147l2 39 1 3 6 2v1l-47-1-1-1 1-123v-54l-2-20-6-3v-2l-16 6-5 3h-2v2l-11 6-7 4-5 5-5 2-2 4-5 4h-2l-2 4-5 5-5 6h-2l-2 4-4 5 2 1-3 1v-15l1-4v-4l2-7 4-4v-5l5-6 9-17 8-8 12-5 6-1 23-1 26-2z" fill="#CCA112"/>
<path transform="translate(1228,638)" d="m0 0h37l17 1 25 5 3 4 9 19 5 13 3 10-1 4-12-13-6-7-11-9-14-7-11-3-6-1h-23l-16 4-16 8-12 10-9 13-7 14-4 13-1 6v30l5 23 5 12 9 15 9 11 12 11 10 7 15 6 19 4h21l16-4 16-8 14-10 8-7 9-12 2-1-1 9-6 19-6 11-12 16-5 6-13 4-16 3h-17l-24-4-16-5-21-9-12-7-14-10v-2l-4-2-12-12-9-13-8-14-6-15-5-23v-30l4-17 5-12 6-11 7-9 17-16 16-9 15-6 7-2z" fill="#CBA111"/>
<path transform="translate(947,926)" d="m0 0 4 1 2 4 14-5h9l9 3 3 3-1 5-10 15-6 12-10 13-11 17-11 18-13 20-10 17-8 13-17 28-13 20-14 22-10 10-14 4-6 2-1 6h5l2 4-14 3h-19l-8-1-2-5 1-4 3-2h11l6 1h7l3-4-1-5-2-5-2-3v-6l7-6 6-11 11-16 7-10 10-16 9-14 16-25 14-21 5-9 10-14 10-17 7-11 5-9 7-9-5 2-8 2-29 3-30 6-12 4-10 6-8 10-6 9-3 4-3-1 1-17 4-20 3-8 3-3 16-4 22-2 24-1z" fill="#CBA111"/>
<path transform="translate(607,628)" d="m0 0h3l4 7 2 1 1-4 3 7h21l9-3 7 4v3l-2 2 2 3h5l1 4-5-1-4 1-5-1-4 1-8 9-22 36-12 18-8 13-7 12-4 7-5 16v29l1 6 1 20 1 7 1 26 6 2-2 4-6-1 1-3-2 1-25 1-6 2h-10l-1-1v-9l4-11 4-24 2-23v-14l-2-10-11-23-10-18-13-23-15-23-10-14-9-10-15-11-11-6v-4h8l14 4 22 3 8 1h23l5 2-1 8-4 7v10l9 14 20 35 5 12 4 5 3 1v2l6-3 7-10 8-15 9-14 14-26 4-13-1-17-4-5-1-2-6-2z" fill="#CDA210"/>
<path transform="translate(1094,640)" d="m0 0h11l3 1v7l-5 13-2 17-2 38v55l1 45 2 8 2-5 6-1 5 1 6 12 7 8 9 6v1l-7-1-19-8-5-3-3-1 1 11v9l-1 2h-8l-3 2-23 3h-15l1-5 4-11 1-6 1-18 1-135-2-16-5-19-4-6v-2l34-1z" fill="#AC8606"/>
<path transform="translate(441,632)" d="m0 0h7l-1 7-5 25-1 42-1 78v41l1 20 2 7 9 4 2 2-15-1-9-2h-10l-19 2-9 1 3-5 4-5 1-5 3-48 1-45v-78h-3l-1-5 2-10h-2l-1 7-8 16-10 18-4 5-9 16-9 14-12 18-4 4 2-5 7-11 8-13 3-5 1-2h2l2-6h2l2-5 4-9 3-4 1-3 2-1 2-5 4-6 8-19 4-14 2-10h-2v-2l4 2 1 2 3-4 8-2z" fill="#CCA111"/>
<path transform="translate(975,474)" d="m0 0 4 2 11 11 7 14 4 11 1 6v26l-5 25-8 23-10 23-6 12h-52l-7-1 6-8 9-14 12-20 7-16 8-24 7-34 3-16 4-12z" fill="#FDFDFD"/>
<path transform="translate(1077,928)" d="m0 0h37l48 4 2 2 10 30 2 19-7-6-3-3v-2l-4-2-12-9-15-8-14-5-16-2h-15l-11 1-8 4-1-2h-5l-7 3-5 1-1 6h2l-1 6-5 3-3-2v-2h-3v11 3h-2l1 6 1 10-1 5-4 2-1 3 3 1 1 3-4 1-2-1 1 5 1 4-2 6 3-2 2-4v16l1 2-2 8-1 3v23h2l-1 4h-2v4h2l1 5-2 3v-2h-2l1 5-1 16v21l-1 3-1 7-5 2-3-1-2 3-2-9-5-5v-18l1-11h2v-2l4 1 1 7v25l2-1 1-4v-20l-1-13 1-27v-18l-1-10h2v-10l1-10-1-6v-47l-2-15-5-12v-4l6-1z" fill="#AC8606"/>
<path transform="translate(803,859)" d="m0 0 5 2 3 3-2 25-2 28-1 63-1 17 7-5 3-3 1 9 2 9 3 1-5 4v11l6 11 7 12 8 19 6 7 3-1 1 5-3 7-6 7-7 12-6 11-3 6h-2l-8-18-3-8-6-15-12-39-5-15v-19h2l2-26 3-14 2-24 3-69 2-7h-6l1-4 1-1z" fill="#FDFDFD"/>
<path transform="translate(950,635)" d="m0 0h12l2 1 36 3 13 1h8l7 4 5 28 4 17-1 3-7-9-9-7-16-8-15-4-10-2-15-1v-1h8v-3l-11 1-2-3v-5l-5 1-2 1-5-4h-9l-5-1-4 6h-2l-2 5v6l2 6 1 1v11l-1 11-3 4-2-31-1-8-6-3v-2l-16 6-5 3h-2v2l-11 6-7 4-5 5-5 2-2 4-5 4h-2l-2 4-5 5-5 6h-2l-2 4-4 5 2 1-3 1v-15l1-4v-4l2-7 4-4v-5l5-6 9-17 8-8 12-5 6-1 23-1 26-2z" fill="#AC8606"/>
<path transform="translate(238,642)" d="m0 0h24l2 4v8l-3 4v3h-2l1 3-3 4-2 3-1 21 1 2-1 6 2-1 1-10 1-1 2-11 4-4h1l1 50v41l-2 8 2-2v6l-2 1-8-3-1-2-1 4v11l3-3h2v-2h2l1 4 5-1v22l1 41h-8l-1-6v-9l2-10v-28l-5 2-1 2-1 21v28l-2 2 1 7 5 1 1-5 8-1v5l-4 1v2h-14l-12-6 2-4 3-1 1-6 1-21v-125l-1-39-3-8-3-5z" fill="#CCA110"/>
<path transform="translate(995,1078)" d="m0 0h2l-3 9-6 15-3 7-14 27-3 6-5 3-9 3-10 1-7 3-13 1-39-1-11-1-2-1v-2l-4 1-2-4 7-1 15-1 4-1 2-1-15-2h-11l-6-1 2-5 8-7 2-1 12-1 41-1 12-2 16-6 11-7 20-20 7-8z" fill="#AC8606"/>
<path transform="translate(1075,238)" d="m0 0 6 5 9 16 3 5 19 10 6 4v4l-5 4-16 9-6 7-8 17-4 5-8-7-16-17-9-9-11-7-4-3 2-5 14-9 9-8 9-12 6-7z" fill="#FDFDFD"/>
<path transform="translate(805,118)" d="m0 0 4 2 5 10 3 8 21 13 5 5-1 4-6 7-14 9-4 6-7 19-1 2-4-1v-2l-4-2-13-13-8-7-10-7-9-6v-4l8-8 8-7 8-8 10-14z" fill="#FEFEFE"/>
<path transform="translate(536,238)" d="m0 0 4 1 6 7 6 10 9 9 17 9 5 5-2 4-18 10-9 9-13 19-4 2-7-9-6-10-8-9-10-6-7-6-2-3 1-4 8-5 11-6 6-5 6-10 5-11z" fill="#FEFEFE"/>
<path transform="translate(1195,1072)" d="m0 0 2 1v8l-6 16-9 22-3 7v2l2 1-4 6-6 2-3 5-16 2-17 1h-43l-48-1 3-1v-2l6-2 3-5 3 2v4h7l-1-3-4-2v-3h6l1-3 6-2h5v-2h-7v-1h12l11 1h29l16-2 12-5 9-7 15-16 6-7 9-14z" fill="#CBA010"/>
<path transform="translate(474,926)" d="m0 0h31l21 2 11 2 12 1 4 2 4 9 6 21 2 10-4 1-11-9-10-9-14-8-11-3-9-1h-22l-16 3-8 2-6 2 1-4-1-3-9 2v-2l-10 5-7 3-3 1v3l3 1-1 4-4 2-5 8-8 12-1 5-3 3-2-1 1 3h-3l-1-3 4-13 7-9-5 5-2 3h-2l-2 4-3 5-6 7-2 2 1-9 6-10 8-11 9-10 8-7 11-7 12-6 22-7z" fill="#F7C616"/>
<path transform="translate(437,635)" d="m0 0 2 4-1 10-2 6v9l3 9v29l1-37h1v41l-1 78v41l1 20 2 7 3 2-7-1-1-3-3 4-6-2-1-5-2-1-2-7-1-10 1-3-3-5v-7-1l-1-4 1-1-1-2v-7l3-7 3 2-1-16-1-8 3 4 1 6 1-1v-31l1-13v-53l-1-4 2-9-4-1-1 2-6-5-1-5-4-4 2-4-1-3 1-4h-2v2h-2v-2l-3-1 2-3 7-2 9-3 7 1z" fill="#AC8606"/>
<path transform="translate(1173,582)" d="m0 0 5 5 8 15 9 8 13 10 8 4-4 3-16 8-13 7-21 14-4-1-2-2v-10l-4-4-5-2h-6l-11-7-3-4 9-7 8-8 11-8 8-12 8-8z" fill="#FDFDFD"/>
<path transform="translate(752,865)" d="m0 0v3l-4 4-2 4-9 6h-2l-2 4-9 8-11 9-6 8-5 1-18 6-6 5-4 12-4 9-10 5-11 10-8 7-16 16-10 13-7 11-9 17-7 7-1-2 2-12 4-5 5-4 5-8 1-5-1-4-4-3-6 2 6-7 38-38 11-9 9-9 11-9 10-9 17-13 10-8 11-10 9-7 8-4h6l7 1z" fill="#FCFCFC"/>
<path transform="translate(710,955)" d="m0 0 4 2 8 16 7 18 5 15 10 40 2 9h-3l-4-4-16-6-21-5-9-2h-8l-2 5h-2l1-7 5-16 12-36 9-26zm1 41-2 1v2h-2l-3 7 1 14 5 3 13 3 1-4-3-11-7-14z" fill="#070506"/>
<path transform="translate(504,811)" d="m0 0 5 2 5 10 4 13 5 1-4 8-5 7-1 9 4 3 11 3-7 11-8 14-6 7-9-3-5-10-4-14-2-3-13-2v-3l-2-1 1-12 1-3h2l1-5 10-4 4-5 5-12 3-8z" fill="#FCFDFD"/>
<path transform="translate(571,992)" d="m0 0 9 3 7 3v7l-3 9v18l3 12v15l-1 25v21l1 13v22l-1 2-9 1-2 1-13 1-28 1h-18l2-2 11-1v-2l5-1v2l9-1 1 1 31-1-3-18 1-1 1-20-2-11 1-7h-3l-1-3 1-5v-7l-1-2v-13l-2-9v-5l7-9 3-2-9 1-2 2v8l-4-2 1-9-2-1 2-2 3-6 7-3h4l-2-4v-3l-10 4-6-1 2-2 7-1 3-3-5-3-9-4-13-5 1-2 13 4 10 1z" fill="#AC8606"/>
<path transform="translate(661,773)" d="m0 0h2l4 8 4 10 12 16 7 10 10 8 10 5 15 5 9 2 25 1-1 5-4 8 8-2-3 4v6l-3 1 3 2-4 3-5 3-7-1-4-2 3-1 2-4 2-3-4 2-21-3-33-9-10-2-1-2-2-15-4-23-7-19-3-10z" fill="#AC8606"/>
<path transform="translate(363,1063)" d="m0 0 3 3 4 10 1 84-1 41-1 17-4 11-4 1-2-5-4-26-1-67 1-23 6-40z" fill="#FEFEFE"/>
<path transform="translate(1093,659)" d="m0 0 2 2 1 4v3l3 1-1 34v61l1 58 1 8 1 1 1 11-2 10-5-1h-4l1-11-1-8-1-9-3-16v-13l2-9 1-13v-11l-1-2 1-5-1-2v-7l1-2-2-10-2-23v-15l-3-12-2-7-3 6-2 11-2 3-2 9h-2l2 5-2 2h-1v5l-1 3-3-1-1-5 1-11 1-2-1-5 5-1 1-6h-2v-2h2l1-9 2-1 1-7-1-4 4-1 2 6h2l4-10z" fill="#CCA110"/>
<path transform="translate(607,628)" d="m0 0h3l4 7 2 1 1-4 3 7h21l9-3 7 4v3l-2 2 2 3h5l1 4-5-1-4 1-5-1-4 1-8 9-22 36-5 5-2-1-2 6-5 5-8 13-4 9-2 3h-2l-2 5-9 11h-2v2h-2l-1 2-1-7 4-12 2-2 2-5 6-9 9-16 10-16 11-21 4-13-1-17-4-5-1-2-6-2z" fill="#CDA210"/>
<path transform="translate(1347,799)" d="m0 0 1 4-6 21-7 14-12 16-5 6-13 4-16 3h-17l-24-4-14-4 2-2 13 1h10l2-2-4-2 2-4 8 3h3 6l1-4 6-1v-2l13-4h3l2-6 14-7 14-10 8-7 9-12z" fill="#AC8606"/>
<path transform="translate(1254,447)" d="m0 0 5 2 7 8 6 7 9 7 5 5v5l-9 10-9 6-4 6-6 6-5-1-15-14-10-8-1-4 4-7 9-10 12-17z" fill="#FEFEFE"/>
<path transform="translate(808,641)" d="m0 0 2 3 6 16 4 18v9l-4 3-6-1h-10l-6-3-5-3-4-4-10-5-1-5 2-4 7-2 1-2-15-1-3-1-1 2-9-1h-20l-12-1-10 4-2-1 12-6 16-4h22l19 3 4 1-3-3-6-5-3-1 1-3 3-1 14-1h15l1 1z" fill="#AC8606"/>
<path transform="translate(909,667)" d="m0 0 5 1v8l-2 11-12 7-13 11-16 16-8 7-13 13-5 1-2 6-4-2-9-11-2-5 7-9 16-8 10-9 11-11 11-9 9-7z" fill="#FDFDFD"/>
<path transform="translate(357,449)" d="m0 0 6 2 4 4 4 9 13 10 2 4-6 8-11 11-9 11-10-5-12-10-9-6-3-4 2-7 9-10 9-7 9-9z" fill="#FEFEFE"/>
<path transform="translate(950,635)" d="m0 0h12l2 1 25 2 12 3 5 3-1 5-5 2-4-4-9-1-14-1-10-2h-4v-2l-7 1-6 2h-10v-4l-8 3-2 1h-15l2 5h-2v2l-11 6-7 3-10 5-13 4-5 3-3-1v-5l-5 1-3 3-4 1-2 1 1-4 2-5 2-7 9-10 10-5 9-2 23-1 26-2z" fill="#CCA111"/>
<path transform="translate(1080,929)" d="m0 0h29l29 1 24 2 2 2 10 30 2 19-7-6-3-3v-2l-4-2-12-9-15-8-14-5-16-2-21-1 3-3 8-1 2-1 14-1v-2l-7-1 3-2-5-1-1 3h-12-2-7l-3-4 5-1 6 2v-2l-8-1z" fill="#CBA010"/>
<path transform="translate(703,929)" d="m0 0h5l1 1-1 10-5 29-3 10-1 3-2 1-2 5h-2v3l-5 2v2h-2l-1 4 1 2 3-4 2 4-1 7-2 3-5 17-3 7-2 7h-2l-1-6 1-4v-3l-1-2-2-1-1 6-3 6-2 9-3 9-4 9-5 12-2 4-2 10-1 6-3 9-7 2-1 4-3 5h-3l1-6 10-25 13-33 15-42 11-28 11-25 6-18-1-1-4-2 2-5 5-2z" fill="#F7C717"/>
<path transform="translate(837,826)" d="m0 0 4 1 6 3 5 9 12 14 9 11 13 14 8 7 16 15 8 7 8 6 7 3v1h-8l-19-2-6-1-7-9-3-3v-2l-4-2-14-14-7-8-12-13-9-11-9-8-2-4 1-4 2-9z" fill="#FDFDFD"/>
<path transform="translate(438,581)" d="m0 0 5 1 7 9 6 10 8 6v2l4 2 18 12-4 2h-54l-17-1-7-1 5-5 9-8 9-7 4-5 6-16z" fill="#FCFDFD"/>
<path transform="translate(399,630)" d="m0 0 2 1-1 6h2l-1 10-5 16-5 13-5 9-2 2-2 5h-2l-1 5-3 3-4 9-2 4h-2l-2 6h-2l-2 6-6 9-6 10-6 9-3 8-10 14-3-3-3-7-2-9 2-3 7 2 3-5 2-9 6-10 4-5 3-7 10-13 10-17 11-18 11-21 5-12 1-7z" fill="#F9DE51"/>
<path transform="translate(676,1025)" d="m0 0 1 4v3l-1 10 2-1 2-8 2-5 1 4-5 16-5 11-8 25-7 20-4 16-2 4-3 12-6 1-5-1-5 4h-3l-8 5h-2v4h-3l1-6 7-12 6-13 2-3v2l3-1 4-8 3-2h4l1-8 2-5v-5l3-8 5-13 7-15 2-10 4-10 2-6z" fill="#CDA211"/>
<path transform="translate(300,657)" d="m0 0 2 4h2l9 19 8 16 12 27 2 2 5 2v3l5-2 2-4v3l-6 9-3 5-3 11-3 4-7-2-1 4 1 5-3-3-13-24-10-20-14-24-4-8v-7l5 4 1 7 4 2 7 11 3 2v2h2l6 11v2l3 1 5 6v2h2v5l-4 2 3 7 6 6h3v-8l1-2-3-11-3-6 1-4h-2l-2-7-3-2v-3l-3-1-2-8h-2l-1-4-3-6-2-9-4-10-1-7h2z" fill="#F3C418"/>
<path transform="translate(262,642)" d="m0 0h12v1l-7 1 5 15 5 12-1 3-4-7-3-1-1 3v58l1 43v70l1 13-1 5-1 1h-5l3-2 1-5-8 2-1 4h-5l-2-5 1-4 1-3v-35l1-12 3-4h4l1 8v20l-2 12v13h8l-1-3-1-38v-21h-4l-1-4h-2v2l-6 5v-16l2-2 1 3 9 2v-4l-2 1 2-9v-52l-1-38h-2l-2 6-1 8-1 4-1 7-3 1-1-3 1-4-1-5 1-18 5-6v-3h2l-1-4h2l1-3v-8z" fill="#AC8606"/>
<path transform="translate(474,926)" d="m0 0h31l21 2 11 2 12 1 4 2 4 9 6 21 2 10-4 1-11-9-10-9-14-8-11-3-9-1h-22l-16 3-3-1 4-1 1-2 7-2 14-3 17-1 5-2 6-1h13l-1-2-21-3h-29l-13 1-3 1-10 2-4-1 16-5z" fill="#C99F0F"/>
<path transform="translate(912,698)" d="m0 0h1l1 15-2 7-8 7-14 14-7 8-4 4h-2l-1 3-5 5h-2l-2 4-8 10-10 5v-8l1-10-3-4 14-10 26-26 8-7 10-9z" fill="#FDFDFD"/>
<path transform="translate(245,712)" d="m0 0h1l1 57 1 14 2-2 2-6 2 1v11l3-3h2v-2h2l1 4 5-1v22l1 41h-8l-1-6v-9l2-10v-28l-5 2-1 2-1 21v28l-2 2 1 7 5 1 1-5 8-1v5l-4 1v2h-14l-12-6 2-4 3-1 1-6 1-21z" fill="#C89E0F"/>
<path transform="translate(995,1078)" d="m0 0h2l-3 9-6 15-3 7-14 27-1 3-4 2 2-5-18-1-2-6-5 1-17 1h-10l-15-3-12-1 1-2 34-1 15-3 16-6 11-7 20-20 7-8z" fill="#CBA010"/>
<path transform="translate(978,963)" d="m0 0 6 1 9 5 9 11 8 12 3 3 4 10 6 32 1 14v8h-3l-4-8v-2h-2l-2-9-8-22-12-22-9-14-8-7 1-2h1l-1-8z" fill="#FDFDFD"/>
<path transform="translate(816,624)" d="m0 0h13 4l3 1h6l4 3 1 6v21l-2 14-3 9-1 4-5 6-4-2-1-6h3l3 2-1-1v-2l-6-2-5-12-5-19z" fill="#E9F2F6"/>
<path transform="translate(727,669)" d="m0 0h14l19 2 13 4 7 5v2l2 1-11 1-5 3 1 6 1 3h-2l-2 4-3 3h-7l-10-6-5-4-15-6-5-5-1-7 4-4z" fill="#E9F2F6"/>
<path transform="translate(733,755)" d="m0 0 8 2 11 6 14 8 9 20 5 11 3 9-1 5-3 3v3l-8 6-6 8-5 1-1-7 2-1 1-4-2-1 3-4 1-8-4-11-9-20-8-12-6-5-2-4z" fill="#EBF3F6"/>
<path transform="translate(884,938)" d="m0 0h25v2l3 1-3 2 6 1v1l-15 2-29 6-12 5-8 6-7 10-8 11-3-1 1-17 4-20 2-7 2 2 5-2h14z" fill="#CA9F10"/>
<path transform="translate(935,774)" d="m0 0 3 1 3 14h-2v4l3 1 2 6-1 6 4 17-1 11h2v6l-2 4h-10v6l1 4-6-1-2-5-2-10-2-1v-11l1-24 3-2 1-4h-2v-9l1-2h-2l-1 2v-6l4-2 2-4z" fill="#AC8606"/>
<path transform="translate(1072,1124)" d="m0 0h12l11 1-3 1v2h21l2 4 5 1-2 4-6 1-1 2 26-1 13-2h3v4l-1 3-17 1h-43l-48-1 3-1v-2l6-2 3-5 3 2v4h7l-1-3-4-2v-3h6l1-3 6-2h5v-2h-7z" fill="#AC8606"/>
<path transform="translate(1265,639)" d="m0 0h17l25 5 3 4 9 19 5 13 3 10-1 4-12-13-6-7-11-9-14-7-11-3-6-1h-23l-16 4-3-1 14-5 6-1h23l3-1v-4l4-1v-2l5-1 4 1h8l-26-3z" fill="#C89E0F"/>
<path transform="translate(365,1043)" d="m0 0 3 2 4 10 7 18 3 11 8 9 9 11 9 10 5 5 5 6 1 5-3 13-8 4-5 5h-2l-2 4-3 1-1 5-2 3 2-18 1-13v-15l-5-15-8-14-8-10-6-8-4-11z" fill="#E6EFF3"/>
<path transform="translate(1123,980)" d="m0 0 4 1 2 6 4 15 4 20 5 8-1 3-9-8-9-11-3-3-13-4-6-1-18-1v-1l-17-1 2-8 39-1 10-1 4-1z" fill="#C49A0E"/>
<path transform="translate(825,803)" d="m0 0h2v2l3-1 5 2-2 10-7 11-12 11-12 6-11 5-28 12h-3l1-3 8-5 3-8 3-2 9-3 6-4h4v-2l3-1 1-2h2l1-3 4-1v-3l6-3 11-6 4-1-5-1-4-1-1-4 3-3 5-1z" fill="#F5DB4E"/>
<path transform="translate(1228,638)" d="m0 0h37v2h12l20 3v1h-14l-9-1v2l-4 1v4h-2l-1 2h-23l-20 5v2l-13 7-4 1-1-3 3-6 5-2 3-2 17-5 4-3-1-1h-12l-20 5-3 2-7 2-9 4-6 1 3-5 17-9 18-6z" fill="#FAC917"/>
<path transform="translate(441,632)" d="m0 0h7l-1 7-5 25-1 1-1 37-2 2v-33l-3-9v-9l3-8v-8h-2l-2 1-6-1-7 2-9 3-4 13h-2l1 10v26l-1 7h-1l-1-26h-3l-1-5 2-10h-2l-1 7-8 16-10 18-4 5-9 16-9 14-12 18-4 4 2-5 7-11 8-13 3-5 1-2h2l2-6h2l2-5 4-9 3-4 1-3 2-1 2-5 4-6 8-19 4-14 2-10h-2v-2l4 2 1 2 3-4 8-2z" fill="#B08A07"/>
<path transform="translate(803,859)" d="m0 0 5 2 3 3-2 25-2 28-2 10v16l-3 6 1 5-3 3-4-1v-37l2-47 2-7h-6l1-4 1-1z" fill="#E9F2F6"/>
<path transform="translate(788,1028)" d="m0 0 4 4 1 9h2l2 8v4h2l1 2 1 9 4 4 1 3 2-3 3-4 5 1 9 11 3 3-1 4-3 5-1 9h2v-2h2l2-5 4 2 3-3v4l-8 15-4 6-2 5h-2l-8-18-3-8-6-15-12-39-3-8z" fill="#E9F2F6"/>
<path transform="translate(1282,721)" d="m0 0 9 3 6 7 2 6v8l-3 6-5 5-4 1h-10l-8-4-4-7 1-7 6-9 8-8z" fill="#FEFEFE"/>
<path transform="translate(896,657)" d="m0 0m-1 1m-2 1h2l-1 3h-2v2l-11 6-7 4-5 5-5 2-2 4-5 4h-2l-2 4-5 5-5 6h-2l-2 4-4 5 2 1-3 1v-15l1-4v-4l2-7 4-4v-5l5-6 5-10 1 3-2 5v2l5-2 3-4 5 2v5l6-2 9-4 9-3z" fill="#AB8506"/>
<path transform="translate(459,635)" d="m0 0 6 1 7 4 7 9 5 5 4 5 4 3 1 2 3 2v2h2l12 16 12 12v2l3-1 1 6 4 2 2 7-2 2 2 6-1 2v6l3 5 1 5-3-1-13-24-11-18-11-17-10-14-9-10-15-11-3-2z" fill="#F7C718"/>
<path transform="translate(1093,863)" d="m0 0h4v2l4 2 5-2h9l12 4 1 4-10 18-5 7-7-3-9-9-7-11-4-4 2-4z" fill="#FCFCFA"/>
<path transform="translate(620,677)" d="m0 0 1 2h2l-1 4h-2l-2 7-4 6-2 5-3 1-1-1-2 6-5 5-8 13-4 9-2 3h-2l-2 5-9 11h-2v2h-2l-1 2-1-7 4-12 2-2 2-5 6-9 9-16 10-16 4-4 1 2v6l-3 5 1 4 3-5 4-10 2-1 3-7z" fill="#F7DB49"/>
<path transform="translate(577,763)" d="m0 0h1l1 16v13l1 6 1 20 1 7 1 26 6 2-2 4-6-1 1-3-2 1h-13v-1l7-2v-7h-3l-3-10-1-5 2-9-1-9v-10l3-8 2-4 2-11 1-14z" fill="#AE8808"/>
<path transform="translate(1035,172)" d="m0 0 11 1 6 4 4 6v7l-7 9-5 3h-11l-6-4-5-6-1-7 3-6 6-5z" fill="#FEFEFE"/>
<path transform="translate(567,172)" d="m0 0 12 1 8 4 4 4v7l-6 8-5 4-10 3-5-3-7-8-1-9 3-6 5-4z" fill="#FEFEFE"/>
<path transform="translate(696,224)" d="m0 0h8l7 4 5 9 1 10-4 5-5 2-16 1-5-4-1-2v-9l5-12z" fill="#FDFDFD"/>
<path transform="translate(833,31)" d="m0 0h8l5 3 4 5 1 4v12l-4 6-2 2h-11l-8-4-4-6v-8l4-8z" fill="#FEFEFE"/>
<path transform="translate(524,668)" d="m0 0 5 3 7 11 20 35 4 10 3 9 3 5-1 7-7-1 2-1-4-3-6-18-3-5v-4h-2l-1-5-3-1-3-4-4-6-1-5h-2l-2-4-2-11h-2v-5h-2l-2-5z" fill="#F3C416"/>
<path transform="translate(1140,397)" d="m0 0h9l9 4 5 3 1 7-4 6-5 5-6 3h-5l-10-9-3-8 1-5 5-5z" fill="#FEFEFE"/>
<path transform="translate(685,1037)" d="m0 0h8l21 5 15 4 10 4 4 3-1 2-7-4-10-3-12-4-18-3-9-1v3l10 3 12 3v1h-7l-9-3h-6l-3 1-4 1-7 18-9 27-6 19-2 9v24l-3 3-13-1-13-3-6 3v-3l12-7h2l4-3 11 1 3-15 2-5 5-18 7-19 6-20 6-13 2-7 1 4h2z" fill="#AC8606"/>
<path transform="translate(1046,717)" d="m0 0 1 2h3l2 4 1 12-2 9 1 36h-1l-1-11-4-6v-2l-5-2-6-4-7-10v-6l5-4 6-2h5l1-13z" fill="#E9F2F6"/>
<path transform="translate(768,638)" d="m0 0h39v3l-27 1-20 2-9 2h-7l-1 3-5-2h-17l-15 2-4 2-7-1 4-4 9-4h3v-2l6-1z" fill="#F6DD54"/>
<path transform="translate(463,398)" d="m0 0h10l5 4 1 2v7l-3 6-7 6h-9l-8-6-2-4v-6l5-6z" fill="#FEFEFE"/>
<path transform="translate(299,580)" d="m0 0 9 1 6 7 2 6v7l-4 4-2 1h-7l-7-3-4-5-1-2v-7l4-6z" fill="#FEFEFE"/>
<path transform="translate(825,803)" d="m0 0h2v2l3-1 5 2-2 10-2 2-1-4v2h-2v2l-7 3-7 9-9 6-4 1v2l-8 1-5 1-6 3-6 5-1 3-6 2 3-9 3-2 9-3 6-4h4v-2l3-1 1-2h2l1-3 4-1v-3l6-3 11-6 4-1-5-1-4-1-1-4 3-3 5-1z" fill="#F8C715"/>
<path transform="translate(481,928)" d="m0 0h29l21 3 1 3-21 2-3 2-17 1-10 2-4 1-3-1h-7l3-5 8-4z" fill="#FACA18"/>
<path transform="translate(1306,578)" d="m0 0 5 1 5 8 5 12-1 4-11 4-5 1-6-9-1-9 5-9z" fill="#FCFDFD"/>
<path transform="translate(585,1051)" d="m0 0h1v54l1 13v14h-3l-4-10-2-37 1-23 2-10 3 2v8z" fill="#C99F0F"/>
<path transform="translate(913,192)" d="m0 0h9l5 3 2 4v10l-6 9-3 1-11-7-3-4-1-5 4-8z" fill="#FEFEFE"/>
<path transform="translate(441,632)" d="m0 0h7l-1 7-5 25-1 1-1 37-2 2v-33l-3-9v-9l3-8v-8h-2l-2 1-6-1-7 2-9 3-3 3-1-5 1-5 7-2z" fill="#CAA012"/>
<path transform="translate(383,1052)" d="m0 0 2 4 2 1 2 5v3h2l4 10 8 13v2l3 1 11 14 4 3 5 2v2h3v2h2l2 5 7 6 10 5 19 5 17 4 7 1-1 2-9-1-26-6-17-7-15-8-5-3-7-8-6-9-4-5v-2h-2l-6-12-6-10-6-15z" fill="#AC8606"/>
<path transform="translate(959,666)" d="m0 0h1l1 146 2 42h-2l-2-25-1-19-1-47v-90z" fill="#AC8606"/>
<path transform="translate(688,1039)" d="m0 0 19 3 12 3 16 5 9 5 6 11 1 4-4-2-1-4-5-1-14-7-19-5v-2l-9-1-13-5v-3z" fill="#F9DE52"/>
<path transform="translate(839,943)" d="m0 0 1 2h4l3 6 1 4 5 1 4 1-1 3-6 5-8 12-6 8-3-1 1-17 4-20z" fill="#AC8606"/>
<path transform="translate(1073,793)" d="m0 0 1 4 1 16 1 3-2 10-4 10v8l-3 4 1 4 1 5h2v2l-2 1h-15l1-5 4-11 3-15h1v7h2l1-8v-4l2-4h3v-7l1-5v-12z" fill="#CDA314"/>
<path transform="translate(1016,1010)" d="m0 0h2l5 27 1 14v8h-3l-4-8v-2h-2l-2-9-6-17 1-8 7-3z" fill="#E8F0F4"/>
<path transform="translate(814,810)" d="m0 0h3v2l3-1 5 1 1 2-11 6-8 4h-2v3l-4 2-1 2h-2l-1 3h-3v2l-5 2-9 5-7 2-3 8-3 3-6 3-2 3h-3v-2l2-1v-7l6-5 16-10 11-6 11-9 8-10z" fill="#C69C0E"/>
<path transform="translate(784,1054)" d="m0 0 2 2 9 30 6 16 8 23 3 7v5l-5 2-9 1h-16l4-2h13l-1-10-1-3 1-12 1-2-2-12-3-9-5-12-2-12-3-8z" fill="#AC8606"/>
<path transform="translate(912,930)" d="m0 0h11l10 1-4 2-16 2-37 3-17 1-16 3-2 1 1-5 2-2 17-3 10-1z" fill="#F8CA1C"/>
<path transform="translate(884,938)" d="m0 0h25v2l3 1-4 2-15 2-7 2h-16l-7 1-7-2h-3l-3 1 1-5 1-1z" fill="#AC8606"/>
<path transform="translate(459,635)" d="m0 0 6 1 7 4 7 9 5 5 4 5 4 3 2 6 8 9 3 6 2 2v3l3 1 1 4 4 3v5h3v6l-2 1-15-24-11-16-8-10-9-8-13-9z" fill="#F2D649"/>
<path transform="translate(703,929)" d="m0 0h5l1 1-1 10-5 25-3 4-4-1v-2l-2 1-2 5-1-3 2-9 7-20-1-1-4-2 2-5 5-2z" fill="#F8DC4C"/>
<path transform="translate(1108,818)" d="m0 0 7 1 6 12 7 8 9 6v1l-7-1-19-8-5-3-3-1-2-6 3-8z" fill="#E9F2F6"/>
<path transform="translate(1204,1091)" d="m0 0h3l-1 8-7 28-5 12-5 11h-1l-2-17 10-21 6-16z" fill="#E6EEF2"/>
<path transform="translate(620,677)" d="m0 0 1 2h2l-1 4h-2l-2 7-4 6-2 5-3 1-1-1-2 6-5 5-8 13-2 3-1-5v-9l4-5 5-5v-5l2-3-1-1v-3l2-4 4-2v8l-3 5 1 4 3-5 4-10 2-1 3-7z" fill="#F8C716"/>
<path transform="translate(1068,995)" d="m0 0h39l1 3-1 2h2l1 5h-8l-7-1-29-1z" fill="#F9C815"/>
<path transform="translate(654,664)" d="m0 0 1 3-1 3 8-1v25l-5-1-4-8v-2h-11l-1-4 4-10 5-4v7l3-7z" fill="#F3F1E5"/>
<path transform="translate(494,640)" d="m0 0 10 1h23l5 2-1 8-4 7-1 9-2-3-3-6-3-4-1-3-13-5-10-5z" fill="#AE890A"/>
<path transform="translate(1347,799)" d="m0 0 1 4-6 21-4 9-3 1-2-5-2-3-2-2-11 7-6 2 1-3 15-10 9-8 9-12z" fill="#C89E0F"/>
<path transform="translate(1305,869)" d="m0 0h10l1 3 2 1-4 2-1 4-4 2h-13l-2-1v-4l-11 2-3 9h-1l1-10 3-6z" fill="#EBF3F6"/>
<path transform="translate(649,636)" d="m0 0 8 4v3l-2 2 2 3h5l1 4-5-1-4 1-5-1-4 1-9 8-5 7-4-1 2-6h2l2-4 3-3 2-4h2l1-8 5-4z" fill="#F9DD4E"/>
<path transform="translate(685,1037)" d="m0 0h8l21 5 15 4 10 4 4 3-1 2-7-4-10-3-12-4-18-3-9-1v3l10 3 12 3v1h-7l-9-3h-6l-3 1-4 1-7 18-9 27-6 19-2 7-1-4 5-18 7-19 6-20 6-13 2-7 1 4h2z" fill="#AC8606"/>
<path transform="translate(782,779)" d="m0 0 13 2 9 3 2 5-8 10-5 3-9-17z" fill="#E9F2F6"/>
<path transform="translate(711,943)" d="m0 0 4 2 3 6 1 10 6 13 6 12-1 2h2l3 11 1 7v9l-2-4-4-15-8-21-8-16-2-3h-2l-5 13-1-4 6-21z" fill="#AC8606"/>
<path transform="translate(1021,930)" d="m0 0h23l2 4 6 1h8l-1 3v-2l-7 2h-7v3l1 3-2 2-3-1-1 2-3-10h-6l-1 5-2 1v2h-2l-5-11z" fill="#CBA110"/>
<path transform="translate(1326,840)" d="m0 0h2v2l2 1h-2l-3 9-7 8-2 1-18 1-6 1-3-3 2-3 13-2 13-4 7-8z" fill="#CAA010"/>
<path transform="translate(837,826)" d="m0 0 4 1 2 2-1 1 2 1 2 5 2 4 1 7-1 7-4-2-9-8-2-4 1-4 2-9z" fill="#E9F2F6"/>
<path transform="translate(909,667)" d="m0 0 5 1v8l-2 11-4 2-3-1v-12l-4 1-1 3-4 1-4-1-7 5-2-1 9-7z" fill="#E9F2F6"/>
<path transform="translate(660,1050)" d="m0 0h1v8l-3 1-1 9-3 1-1 10-2 2-2 11h-2l-1 10-3 2h-4l1-7 10-26 6-15h2z" fill="#F4D94A"/>
<path transform="translate(785,762)" d="m0 0 7 1h4v2l3 2 2 6 2 1v2h6l3 3 6 3 2 3v12l-4 9-4 6v-3l4-9v-14l-7-2-13-12-14-8z" fill="#AC8606"/>
<path transform="translate(704,962)" d="m0 0 1 3-3 14-13 37-5 18-2 5-1-4 3-14 4-12 2-3-1-7-4 3-1-4 4-6 5-1v-3h2l2-6h2l1-8 2-5z" fill="#C59B0E"/>
<path transform="translate(1019,1094)" d="m0 0 4 1 1 7v19l-1 7-3 1-4-4v-18l1-11h2z" fill="#E9F2F6"/>
<path transform="translate(852,1155)" d="m0 0h62l23 2 1 2h-15l-19-1h-44l-5 2-7 1-1-4z" fill="#E9F2F6"/>
<path transform="translate(425,956)" d="m0 0 3 1-1 4-4 2-5 8-8 12-1 5-3 3-2-1 1 3h-3l-1-3 4-13 9-10 7-8z" fill="#F9C815"/>
<path transform="translate(1116,936)" d="m0 0h7l15 5 8 6 6 7-5-1-12-6-7-2-6-1h-3l-4-1-1-4z" fill="#AC8606"/>
<path transform="translate(1122,991)" d="m0 0h6l4 13v8h-2v-2l-5-1-5-2-1-5 1-2h-6l2-1v-2l-3-1 8-4z" fill="#FACC1E"/>
<path transform="translate(898,1052)" d="m0 0 1 4-4 10h-2l-2 5-4 7 1 4-3 4-4 8h-2l1 3-4 2v4l-5 3-2 1 2-5 8-16 9-17 3-6 6-10z" fill="#AC8606"/>
<path transform="translate(1218,641)" d="m0 0 7 3-4 2-16 4-3 2-7 2-9 4-6 1 3-5 17-9z" fill="#F3C418"/>
<path transform="translate(1139,846)" d="m0 0 7 4 6 5v2l-16 8-6 4 3-9 5-11z" fill="#FCFDFD"/>
<path transform="translate(480,929)" d="m0 0h20l-1 3-12 5-10 2-3 2h-7l3-5 8-4z" fill="#FEE556"/>
<path transform="translate(614,993)" d="m0 0v3l-8 13-7 14-7 7-1-2 2-12 4-5 5-4 5-8 4-1 2-4z" fill="#F5DE60"/>
<path transform="translate(681,830)" d="m0 0 3 1v2l6 1 2 5 2 2v4l-7 1-9-1v-14z" fill="#CFA411"/>
<path transform="translate(782,812)" d="m0 0 1 3-4 4v3l-8 6-6 8-5 1-1-7 2-1 1-4-2-1 3-4 2-3 1 6h6l1-4 5-5z" fill="#FAFBF8"/>
<path transform="translate(1174,723)" d="m0 0h1l1 25 1 10h2l3 13 1 10h-3v-4l-3-1-1-6-1-4-2-6-1-16v-8l1-1z" fill="#F3C415"/>
<path transform="translate(790,688)" d="m0 0 4 2 11 10 6 9 1 3-5-2-8-4-6-2-4-4 2-1v-8z" fill="#FAFCFC"/>
<path transform="translate(393,669)" d="m0 0h1v5l-10 19-7 10-9 16-9 14-12 18-4 4 2-5 7-11 8-13 3-5 1-2h2l2-6h2l2-5 4-9 3-4 1-3 2-1 2-5 4-6z" fill="#C99F0E"/>
<path transform="translate(806,358)" d="m0 0h41l16 1v3l-3 1-21-1-38-2v-1z" fill="#3A3B3C"/>
<path transform="translate(748,1083)" d="m0 0h3l2 6 1 22-2 12-3 7-5 6-1-4 2-3h2l2-4 1-14-1-4 1-1v-10l-4-5-3-3z" fill="#E9F2F6"/>
<path transform="translate(829,768)" d="m0 0 4 2 1 3 3 1-1 11-4 5-2-4v-3h-3l-3-3-1-9 1-2z" fill="#AC8606"/>
<path transform="translate(749,1071)" d="m0 0h2l6 8 8 12v2h2l5 17 1 5v14l-3 6-1 4-4 2-2 3-1-2 6-10 2-6v-8l-3-16-6-12-6-8z" fill="#AC8606"/>
<path transform="translate(439,938)" d="m0 0 2 1-5 5-6 3-11 8-6 7-8 7-1 3h-3l1-4 8-10 8-8 13-9z" fill="#F0D346"/>
<path transform="translate(800,1153)" d="m0 0 8 2h13l4-2h3l1 3-3 5h-19l-8-1v-6z" fill="#FDFDFC"/>
<path transform="translate(1307,666)" d="m0 0 4 2 2 4 8 5v2l3 1 3 10-1 4-12-13-9-11z" fill="#F1C41C"/>
<path transform="translate(657,1067)" d="m0 0 1 2-5 12-2 10-1 6-3 9-7 2-1 4-3 5h-3l1-6 4-9 1 2 6-2 2-10h2l1-11 2-2 2-10z" fill="#FAC916"/>
<path transform="translate(1184,787)" d="m0 0h4l9 15 9 11 7 8-3 1-6-4v-3h-2v-2h-2l-4-4v-3l-4-2-6-12z" fill="#EDC321"/>
<path transform="translate(363,1063)" d="m0 0 3 3 4 10v13l-3-1v-2l-4-2-2-6v-9z" fill="#D4DCE0"/>
<path transform="translate(327,712)" d="m0 0 2 2 5 10 6 3v3l5-2 2-4v3l-6 9-3 5-3 7h-2l1-20h-2l-5-13z" fill="#B28B08"/>
<path transform="translate(685,1037)" d="m0 0h8l21 5 15 4 10 4 4 3-1 2-7-4-10-3-12-4-18-3-9-1v3l10 3 12 3v1h-7l-17-6z" fill="#C79D0E"/>
<path transform="translate(842,678)" d="m0 0h1v6h-2l1 8-2 3 1 11-6 7 2 1-3 1v-15l1-4v-4l2-7 4-4z" fill="#CEA91D"/>
<path transform="translate(423,792)" d="m0 0 2 1 1 16v3h2l-1 6-1 7-5-4v-7-1l-1-4 1-1-1-2v-7z" fill="#AD8706"/>
<path transform="translate(618,637)" d="m0 0 2 2h24l-1 2-13 3-2 6-3 2-5-1-2-10z" fill="#AC8606"/>
<path transform="translate(416,633)" d="m0 0h13l8 1-2 4-7-1-7 2-9 3-3 3-1-5 1-5z" fill="#CDA51B"/>
<path transform="translate(1079,1140)" d="m0 0h26l16 3v1h-45l1-3z" fill="#CDA211"/>
<path transform="translate(1068,995)" d="m0 0 25 1 6 1-3 2-16 1v3h-14z" fill="#FEE556"/>
<path transform="translate(1228,638)" d="m0 0h37v1l-27 1v2l-13 2-5-1-2-1-12 3-3-1 15-5z" fill="#C2990D"/>
<path transform="translate(839,1106)" d="m0 0 1 2-2 3-3 10-5 5-3 4 2 6 4 1 1 4-3 1-1 4-5-10-2-3v-6l7-6 6-11z" fill="#AC8606"/>
<path transform="translate(639,656)" d="m0 0v3l-6 9-7 11-11 18-2 1 2-5 5-10h2l1-4-4-1 2-5 3-5 5-2h2l7-9z" fill="#DCAF10"/>
<path transform="translate(688,977)" d="m0 0 2 4-8 16-1 6h-2l-2 9h-4l1-6 10-25z" fill="#EACB3F"/>
<path transform="translate(620,677)" d="m0 0 1 2h2l-1 4h-2l-2 7-4 6-2 5-3 1h-3l2-6 3-8 2-1 3-7z" fill="#F8CC22"/>
<path transform="translate(836,966)" d="m0 0h4l3 3h3l-2 5-8 11-3-1 1-14z" fill="#CDA210"/>
<path transform="translate(773,841)" d="m0 0 3 1-4 5-2 6-3 3-6 3-2 3h-3v-2l2-1v-7l6-5z" fill="#CAA012"/>
<path transform="translate(459,635)" d="m0 0 6 1 7 4 7 9-3 2-5-2-11-8z" fill="#E6B915"/>
<path transform="translate(650,637)" d="m0 0 7 3v3l-2 2 2 3h5l1 4-5-1-4 1-5-1-4 1-3 2 2-5 5-7z" fill="#B08B10"/>
<path transform="translate(1268,931)" d="m0 0h1l2 29 1 14-2 2h-3v-33z" fill="#121112"/>
<path transform="translate(474,926)" d="m0 0h31l15 1v1l-39 1-13 1-3 1-10 2-4-1 16-5z" fill="#BA920A"/>
<path transform="translate(833,754)" d="m0 0 3 3 6 14 1 4v15l-3 9h-1l-1-8-4 1 2-4h2v-2h3v-9l-5-9-2-9z" fill="#AC8606"/>
<path transform="translate(716,648)" d="m0 0 7 1-2 3-12 4-10 2-3-1 1-4 13-4z" fill="#AC8606"/>
<path transform="translate(557,755)" d="m0 0 4 4 2 6-3 1v7l-2 3-1-6-5 2v-14z" fill="#F9C815"/>
<path transform="translate(608,700)" d="m0 0 3 1-2 5-10 15-8 14-3 3 1-5 4-9 7-12 3-3z" fill="#BF960C"/>
<path transform="translate(912,930)" d="m0 0h11l10 1-4 2-16 2-15 1-2-2 3-1-3-2z" fill="#FAC916"/>
<path transform="translate(780,809)" d="m0 0h2l1 3-8 6-3 5-6 1-1-1v-10h7z" fill="#E9F2F6"/>
<path transform="translate(452,633)" d="m0 0h8l14 4v3h3v2l5 2 2 1-1 3-6-1-6-7-8-4-4-1 1 5-6-2-3-2z" fill="#C79D0E"/>
<path transform="translate(777,1115)" d="m0 0 2 1 1 13 1 11-5 6-4 1v-3l3-4 1-19z" fill="#FAC917"/>
<path transform="translate(871,932)" d="m0 0h28l1 2-2 2h-28l-2-1v-2z" fill="#FDE353"/>
<path transform="translate(1051,642)" d="m0 0h23v1h-7l-1 4-5 2v3l-5-1-5-7z" fill="#CA9F10"/>
<path transform="translate(673,1014)" d="m0 0 1 4-1 6h-2l-1 5-4 9-2 9h-3l1-8 8-22h2z" fill="#EED44E"/>
<path transform="translate(1120,831)" d="m0 0 5 5 8 6 4 4-7-1-12-5-2-5z" fill="#BEA548"/>
<path transform="translate(544,834)" d="m0 0h1l1 6-1 5-1 1 2 6 1 5h-8l-1-1v-9h2l3-10z" fill="#FAC917"/>
<path transform="translate(831,1146)" d="m0 0 1 2-2 11 2 1h-6l2-5v-2l-7 3h-13l-8-2-2 2v-3l5-1 18 1 7-2 2-4z" fill="#FDE558"/>
<path transform="translate(1142,1431)" d="m0 0 9 1h9l7 1 1 5-9-1-3-1h-8l-4-1h-7l-2-2zm26 2 4 1h-2l-1 2z" fill="#FEFEFE"/>
<path transform="translate(538,744)" d="m0 0 4 1 4 7v2h2v4l3 1-1 9-2-1v-2h-2l-8-16z" fill="#EEC11C"/>
<path transform="translate(1094,640)" d="m0 0h11l3 1v7l-3 7-3 1v-5l-2-3h2l-1-4-8-2z" fill="#C69D13"/>
<path transform="translate(574,995)" d="m0 0 6 2 4 2 3-1v7l-2 5-4-1-4-8-3-4z" fill="#CCA110"/>
<path transform="translate(1181,1117)" d="m0 0 1 2-3 7v2l2 1-4 6-6 2-3 5h-10v-1l9-1-1-4 6-3 3-2v-5l2-5h2z" fill="#AC8606"/>
<path transform="translate(995,1078)" d="m0 0h2l-3 9h-2l-1 4-3 2 1 2h-3v2l-5-1 6-10z" fill="#EECA30"/>
<path transform="translate(828,1146)" d="m0 0 1 3-3 3-5 2-22-1-2 1 2-4 2-1h11l6 1h7z" fill="#B78F09"/>
<path transform="translate(504,811)" d="m0 0 5 2 3 7-4 2-1-3h-5l-2 3h-3l1-6 3-4z" fill="#FEFEFE"/>
<path transform="translate(970,1104)" d="m0 0 4 1-1 4-11 7-5 2h-6l4-3 11-7z" fill="#AC8606"/>
<path transform="translate(803,1124)" d="m0 0 4 1 3 6 2 1v5l-7 1-2-4z" fill="#C89E0F"/>
<path transform="translate(239,643)" d="m0 0h11v7l-4 2-4-1-3-2-1-5z" fill="#FBE56E"/>
<path transform="translate(679,640)" d="m0 0 1 3-6 8-2 6-1 2h-3v-8l4-5 2-4 3-1 1 1z" fill="#AC8606"/>
<path transform="translate(722,926)" d="m0 0 4 1h-2l1 4 4 2v3l1 4-2 1-8-8-7-5v-1h5l4 2z" fill="#AC8606"/>
<path transform="translate(660,1050)" d="m0 0h1v8l-3 1-1 9-3 1v2l-3 3-2 4-1-2 8-20h2z" fill="#E7C634"/>
<path transform="translate(705,929)" d="m0 0 4 1-1 10-4 22h-1v-8l3-15-3-1v-7z" fill="#FACD1F"/>
<path transform="translate(645,669)" d="m0 0 3 1 2 10 1 3h-9l-1-4z" fill="#FBFCFC"/>
<path transform="translate(791,699)" d="m0 0 14 5 1-2 6 8v2l-5-2-8-4-6-2-4-4z" fill="#E9F2F6"/>
<path transform="translate(224,860)" d="m0 0 8 1 2 2h-5l-1 2-1 11-3-1v-8h-6l2-4h2v-2z" fill="#A48D2E"/>
<path transform="translate(790,836)" d="m0 0m-1 1m-1 1m-2 1h2v2l-6 3-6 5-1 3-6 2 3-9 3-2 9-3z" fill="#FAC916"/>
<path transform="translate(1196,804)" d="m0 0 6 4 7 8 4 5-3 1-6-4v-3h-2v-2h-2l-4-4z" fill="#E8BB17"/>
<path transform="translate(524,641)" d="m0 0 7 1 1 1-1 8h-3v-2h-3l-3-3-3-2v-2z" fill="#F5C618"/>
<path transform="translate(737,1019)" d="m0 0 2 3 3 9 2 4 1 10 3 11v3h-3l-1-3 1-3-5-17-3-13z" fill="#AC8606"/>
<path transform="translate(654,664)" d="m0 0 1 3-1 1v11l1 7-2-1v-2h-2l-3-6-1-7v-3l3-2v7l3-7z" fill="#E9F2F6"/>
<path transform="translate(560,729)" d="m0 0 5 5 3 1v2l7-3-2 4-2 5-4 1v-3l-3-1-4-8z" fill="#B8910A"/>
<path transform="translate(746,643)" d="m0 0h14l-4 2-9 1h-3l-1 3-5-2-13-1v-1z" fill="#FAC916"/>
<path transform="translate(629,1126)" d="m0 0h2l-3 9-3 4-1 3-3 3-1 4h-3l1-6 5-9 4-3z" fill="#EFCD35"/>
<path transform="translate(1201,646)" d="m0 0 2 1-3 1v2l-5 2 2-4zm-13 5 7 1-1 3-6 2-4 2-4-1 5-5z" fill="#F6D235"/>
<path transform="translate(437,849)" d="m0 0 2 1v3l10 1 5 4-15-1-9-2v-1l6-2z" fill="#C9AB40"/>
<path transform="translate(1030,676)" d="m0 0h4l3 13-1 3-7-9-1-1v-5z" fill="#CFA920"/>
<path transform="translate(248,765)" d="m0 0 3 1 1 3-1 12-3 3-1-1v-14z" fill="#AD8706"/>
<path transform="translate(890,936)" d="m0 0m-14 1h14v1l-16 2-21 1 2-2 4-1z" fill="#CDA211"/>
<path transform="translate(863,1130)" d="m0 0v3l-9 9-21 6 2-4 16-4 6-4z" fill="#AC8606"/>
<path transform="translate(685,1037)" d="m0 0h8l9 2-4 1h-12v3l10 3 12 3v1h-7l-17-6z" fill="#C0970C"/>
<path transform="translate(1276,870)" d="m0 0h3l-2 16h-1v-10l-7-1-7 1 3-3z" fill="#E9F2F6"/>
<path transform="translate(673,801)" d="m0 0 2 1v2l2 1 1 6h2l1 7-4 1-1-5 1-2h-2l-3-6z" fill="#CDA211"/>
<path transform="translate(908,942)" d="m0 0m-8 1h8l7 1v1l-15 2-5 1h-8l1-2 5-2z" fill="#C1970D"/>
<path transform="translate(363,722)" d="m0 0 2 1-10 16-8 12-4 4 2-5 7-11 8-13z" fill="#C2990C"/>
<path transform="translate(1195,613)" d="m0 0 5 1 3 2v5l-3 1-6-2v-6z" fill="#E9F2F6"/>
<path transform="translate(837,699)" d="m0 0 3 1 1 6-6 7 2 1-3 1v-12z" fill="#B08907"/>
<path transform="translate(931,998)" d="m0 0 3 2-2 4-2 6h-2l-1 4-5 1 1-4h2l1-5z" fill="#AC8606"/>
<path transform="translate(688,977)" d="m0 0 2 4-7 13h-2l2-11 2-4z" fill="#F6DB4D"/>
<path transform="translate(703,929)" d="m0 0 2 1-1 4-1 5-3 7-1-3v-4l-4-2 2-5 5-2z" fill="#B78F09"/>
<path transform="translate(701,676)" d="m0 0h1l2 9 4 6 10 7 9 4-3 1-12-6-10-9-1-3z" fill="#AC8606"/>
<path transform="translate(1212,1066)" d="m0 0h1v7l-5 18h-4l3-10 4-9z" fill="#F7FAFB"/>
<path transform="translate(597,1011)" d="m0 0 2 1-1 2h-2v7l4-1-2 4-7 6 2-14z" fill="#E1CB5C"/>
<path transform="translate(1036,1134)" d="m0 0h7v4h-2v2l3 2h-10l1-3-1-4z" fill="#AC8606"/>
<path transform="translate(425,1071)" d="m0 0 3 1 4 7-1 5h-2l-4-4-1-8z" fill="#EDBE13"/>
<path transform="translate(1209,658)" d="m0 0h3l1 4 8-4 3 1-13 7-4 1-1-3z" fill="#E4B713"/>
<path transform="translate(1023,1064)" d="m0 0h1v25l-2 3-1-11 1-16z" fill="#E9F2F6"/>
<path transform="translate(661,773)" d="m0 0h2l6 19 3 6-1 2-3-3-7-21z" fill="#BF960C"/>
<path transform="translate(1218,639)" d="m0 0h9l-2 3v2l-5-1-2-1-12 3-3-1z" fill="#C0970C"/>
<path transform="translate(766,1139)" d="m0 0h3l1 3-1 2 5-5 2 1-4 6v2h-4v-2l-4-1 1-5z" fill="#CDA311"/>
<path transform="translate(638,1102)" d="m0 0 2 2v7l-4 6h-3l1-6z" fill="#ECC730"/>
<path transform="translate(838,1076)" d="m0 0 2 4-2 4 1 5-2 1v-2l-4-1-2-4 5-4z" fill="#E9F2F6"/>
<path transform="translate(899,911)" d="m0 0 25 3 9 2v1h-8l-19-2-6-1z" fill="#E9F2F6"/>
<path transform="translate(677,666)" d="m0 0 1 2-5 14-4 1v-7l3-1 2-5z" fill="#B18D11"/>
<path transform="translate(1209,624)" d="m0 0h7l-4 3-13 7-3-1 7-5 3-3z" fill="#E9F2F6"/>
<path transform="translate(1022,931)" d="m0 0h14v1h-7v3l-2 1v7h-2l-3-10z" fill="#F1C61F"/>
<path transform="translate(850,738)" d="m0 0 2 1-2 2-5 1-2 6-4-2-4-6 6 1 2-2z" fill="#E4EDF1"/>
<path transform="translate(822,708)" d="m0 0 5 1 2 11-3 3-3-8z" fill="#EDE2AC"/>
<path transform="translate(969,1124)" d="m0 0 3 1 1 4-2 3-7 1-1-4 4-1v-3z" fill="#FAC916"/>
<path transform="translate(690,721)" d="m0 0 4 2 14 9v2l3 1-2 1-13-8-6-5z" fill="#F2E99F"/>
<path transform="translate(1071,993)" d="m0 0 36 1v1l-32 1-6-1z" fill="#D4A811"/>
<path transform="translate(808,881)" d="m0 0h1l-1 22h-1v-8h-2v-12h2z" fill="#F9FBFC"/>
<path transform="translate(335,732)" d="m0 0h1v6l3-3 2 1-3 5-3 7h-2l1-14z" fill="#CFA411"/>
<path transform="translate(684,1038)" d="m0 0 1 4-1 2 6 1-4 2-3 1-6 1 3-10 1 4h2z" fill="#A88305"/>
<path transform="translate(686,1016)" d="m0 0h2l-1 7-4 13-2 3 1-7 2-11z" fill="#B68F09"/>
<path transform="translate(540,846)" d="m0 0 1 4 2 1v4h4v2h-8l-1-1v-9z" fill="#EBCE44"/>
<path transform="translate(400,850)" d="m0 0 1 2 5 2 1 2-11 2-4-1z" fill="#F2DD64"/>
<path transform="translate(785,762)" d="m0 0 7 1h4l1 7-7-4-6-1-2-2z" fill="#B48D08"/>
<path transform="translate(670,696)" d="m0 0 4 2 6 10-1 2-6-4-3-6z" fill="#EFD144"/>
<path transform="translate(831,1146)" d="m0 0 1 2-2 11 2 1h-6l2-5v-2l-7 2 3-3 4-1 2-4z" fill="#F7DC4D"/>
<path transform="translate(434,1087)" d="m0 0 5 5 4 5-1 4-7-7-2-6z" fill="#FAC916"/>
<path transform="translate(424,796)" d="m0 0h1l1 13v3h2l-1 6-1 7h-1v-12l-1-9-1-3z" fill="#CDA211"/>
<path transform="translate(761,829)" d="m0 0 1 2 8-2-4 6-4 2h-2l-1-7z" fill="#C4A11D"/>
<path transform="translate(1209,1125)" d="m0 0h1v6l-7 6h-2l1-4 4-5h2z" fill="#3E3F41"/>
<path transform="translate(1013,670)" d="m0 0h5l7 5v2l2 1h-4l-10-6z" fill="#C59B0E"/>
<path transform="translate(832,1152)" d="m0 0 1 2h5l2 4-10 1 1-6z" fill="#B28C0D"/>
<path transform="translate(1123,980)" d="m0 0 4 1 2 6-1 3-4-2-2 2z" fill="#AC8606"/>
<path transform="translate(401,844)" d="m0 0 2 2v3h2v3l2 1-2 1-5-3-7 6 2-4 5-6z" fill="#F0C621"/>
<path transform="translate(811,657)" d="m0 0 3 1 2 10-4-1-3-5v-2l2-2z" fill="#CDA211"/>
<path transform="translate(474,640)" d="m0 0h3v2l5 2 2 1-1 3-6-1-3-3z" fill="#AF8907"/>
<path transform="translate(598,1013)" d="m0 0 3 1 1 4-3 3h-2l-1 2-1-7z" fill="#FCFCFD"/>
<path transform="translate(550,761)" d="m0 0 3 3v6l-2 2-1-1-2 4-1-10 2 1z" fill="#C79D0F"/>
<path transform="translate(1171,1102)" d="m0 0v3l-6 7-6 5-2-1 7-8z" fill="#E8BA13"/>
<path transform="translate(680,710)" d="m0 0h2l4 5 5 4-1 3-8-6-2-2z" fill="#E6BD1F"/>
<path transform="translate(585,998)" d="m0 0h2v7h-2l-1 4-3-2 1-5z" fill="#EACA3C"/>
<path transform="translate(747,862)" d="m0 0 6 2-3 4-7-1-2-2h3v-2z" fill="#E6C433"/>
<path transform="translate(510,820)" d="m0 0 3 1 2 6v5l-1-3h-2l-1-2-2 2-2-2h2l-1-3z" fill="#EAF2F6"/>
<path transform="translate(502,818)" d="m0 0h6v5l-5 1-4 1-1-3z" fill="#E9F2F6"/>
<path transform="translate(330,935)" d="m0 0 2 3 2 5-1 10-2 1z" fill="#111011"/>
<path transform="translate(672,631)" d="m0 0 16 1-3 2-12 1z" fill="#E9F2F6"/>
<path transform="translate(1141,1133)" d="m0 0h8l3 2-8 2-7-1z" fill="#FAC916"/>
<path transform="translate(1072,1124)" d="m0 0h12l11 1-3 2h-10l-10-2z" fill="#B9910A"/>
<path transform="translate(514,883)" d="m0 0h3l-2 5-6 1-2-1 2-4z" fill="#E9F2F6"/>
<path transform="translate(1347,799)" d="m0 0 1 4-3 3-2 5-3 2v-3l4-8z" fill="#E1B312"/>
<path transform="translate(281,677)" d="m0 0 5 4 1 6h-2l-1 3-3-6z" fill="#EDBE15"/>
<path transform="translate(524,641)" d="m0 0 7 1 1 1v5h-2l-1-4h-10v-2z" fill="#E5CA4B"/>
<path transform="translate(543,1123)" d="m0 0h2l-1 4-10 2h-16v-1l22-2z" fill="#AC8606"/>
<path transform="translate(660,1050)" d="m0 0h1v8l-3 1v2l-4 1 2-6h2z" fill="#F4D749"/>
<path transform="translate(1068,995)" d="m0 0 6 2-3 4v2h-5z" fill="#FACA19"/>
<path transform="translate(467,927)" d="m0 0h7v1l-6 1v2l-17 2 3-2z" fill="#BA920A"/>
<path transform="translate(1105,820)" d="m0 0 1 2 5 1 2 2-2 2-5-1-3-1v-3h2z" fill="#D8BB3B"/>
<path transform="translate(585,741)" d="m0 0v3l-5 16h-1v-9l4-8z" fill="#AC8606"/>
<path transform="translate(562,963)" d="m0 0 2 3 1 7-4 1-5-5 5 1z" fill="#AC8606"/>
<path transform="translate(373,705)" d="m0 0 1 4-8 13-3-1 1-2h2l2-6h2l2-5z" fill="#D0A40F"/>
<path transform="translate(632,657)" d="m0 0h1l-1 9-3 1-2-1 2-6h2z" fill="#FBD128"/>
<path transform="translate(607,628)" d="m0 0h3l4 7 2 1 1-4 1 5-2 1-4-2-2-4-6-2z" fill="#CFAE2A"/>
<path transform="translate(1435,1082)" d="m0 0h1l-1 9-3 5h-1l1-8z" fill="#FEFEFE"/>
<path transform="translate(1124,987)" d="m0 0 4 2 3 5v6l-2-4-1-5-7 1v-2h2z" fill="#C79C0F"/>
<path transform="translate(650,637)" d="m0 0 7 3v3h-8z" fill="#CEA71C"/>
<path transform="translate(608,700)" d="m0 0 3 1-2 5-2 3h-3l1-3z" fill="#C69C0E"/>
<path transform="translate(381,693)" d="m0 0h2l-2 5-4 5-3 4 1-7z" fill="#BD940B"/>
<path transform="translate(769,680)" d="m0 0h7l1 3-9 2-2 1 1-5z" fill="#FEFEFE"/>
<path transform="translate(679,640)" d="m0 0 1 3-4 2-2 4-5 2 3-5 2-4 3-1 1 1z" fill="#C0970C"/>
<path transform="translate(776,1139)" d="m0 0 4 2-4 5-4 1v-3z" fill="#F5D94A"/>
<path transform="translate(1204,1091)" d="m0 0h3l-1 6-3 3-3 4 1-5z" fill="#CBD3D6"/>
<path transform="translate(522,717)" d="m0 0 4 2 5 12-1 2-8-14z" fill="#D4AF21"/>
<path transform="translate(515,643)" d="m0 0 5 1 5 3v2h3v2l2 1-4-1-11-7z" fill="#CDA211"/>
<path transform="translate(459,635)" d="m0 0 6 1 1 4-4 1-3-3z" fill="#FDE351"/>
<path transform="translate(397,975)" d="m0 0 2 3-4 7-4 2 2-6z" fill="#DEB824"/>
<path transform="translate(1079,931)" d="m0 0 5 1 3 2v2h-7l-3-4z" fill="#CDA211"/>
<path transform="translate(291,699)" d="m0 0 5 5 2 7h-2l-5-9z" fill="#E8C735"/>
<path transform="translate(452,633)" d="m0 0h8l-2 2v4l-4-1-3-2z" fill="#AC8606"/>
<path transform="translate(1208,1132)" d="m0 0 1 3-7 5-3-1 2-3 4-2z" fill="#E9F2F6"/>
<path transform="translate(1204,1097)" d="m0 0h2l-2 11-3-3 1-5z" fill="#FCFDFD"/>
<path transform="translate(437,956)" d="m0 0h2l-2 4-5 3h-3v-2z" fill="#AC8606"/>
<path transform="translate(1182,775)" d="m0 0 2 3 3 9h-3v-2l-3-1z" fill="#DDB113"/>
<path transform="translate(840,703)" d="m0 0 1 3-6 7 2 1-3 1v-7l3-3h3z" fill="#CEBE7B"/>
<path transform="translate(837,690)" d="m0 0 1 4v5l-4 4 1-7v-4z" fill="#E2E6DD"/>
<path transform="translate(1199,1146)" d="m0 0h11l-1 2-3 1h-7z" fill="#E9F2F6"/>
<path transform="translate(266,853)" d="m0 0 1 4-6 2-1-4z" fill="#FBD531"/>
<path transform="translate(749,776)" d="m0 0 3 1 4 7v5l-3-4-4-7z" fill="#FEFEFE"/>
<path transform="translate(587,736)" d="m0 0 1 4-5 5-4 2 2-4 4-6z" fill="#D6AA11"/>
<path transform="translate(548,1022)" d="m0 0 2 2 2 13-3 3z" fill="#AC8606"/>
<path transform="translate(767,1013)" d="m0 0 2 4h2l1 2v6l-3-3-3-8z" fill="#ECBD13"/>
<path transform="translate(915,1015)" d="m0 0 2 2-5 7h-2v2l-2-1 3-5h2l-1-3z" fill="#FAC916"/>
<path transform="translate(475,941)" d="m0 0 3 1-2 1v2l-11 2 4-2 1-2z" fill="#C3990D"/>
<path transform="translate(604,709)" d="m0 0h2l-2 5-4 4-1-4z" fill="#C2980D"/>
<path transform="translate(1323,680)" d="m0 0 2 4 2 6-1 4-4-4 1-5z" fill="#BB930B"/>
<path transform="translate(699,646)" d="m0 0 4 1 1 3-5 1-4-2z" fill="#FAC916"/>
<path transform="translate(664,1038)" d="m0 0h1l-1 9h-3l1-8z" fill="#EFD54D"/>
<path transform="translate(1043,940)" d="m0 0 3 3-2 3-3-1-1 2-1-5z" fill="#CDA211"/>
<path transform="translate(697,932)" d="m0 0h5l-2 1v5l-2 1-3-3z" fill="#E9F2F6"/>
<path transform="translate(451,1434)" d="m0 0 4 1h-2v2l-8 1 1-3z" fill="#FEFEFE"/>
<path transform="translate(439,1434)" d="m0 0h3l1 4-2 2z" fill="#FEFEFE"/>
<path transform="translate(429,1436)" d="m0 0h6v2l-6 1z" fill="#FEFEFE"/>
<path transform="translate(1174,1435)" d="m0 0 5 1v2h-4z" fill="#FEFEFE"/>
<path transform="translate(1442,1071)" d="m0 0 1 2-1 2h-2z" fill="#FEFEFE"/>
<path transform="translate(1446,1066)" d="m0 0 1 3-2 1z" fill="#FEFEFE"/>
<path transform="translate(436,1434)" d="m0 0 1 2-2-1z" fill="#FEFEFE"/>
<path transform="translate(1354 1e3)" d="m0 0 2 1-2 1z" fill="#FEFEFE"/>
<path transform="translate(1149,1438)" d="m0 0" fill="#FEFEFE"/>
<path transform="translate(379,1191)" d="m0 0" fill="#FEFEFE"/>
<path transform="translate(380,1190)" d="m0 0 2 1z" fill="#FEFEFE"/>
<path transform="translate(1448,1063)" d="m0 0" fill="#FEFEFE"/>
<path transform="translate(439,1438)" d="m0 0" fill="#FEFEFE"/>
<path transform="translate(1172,1434)" d="m0 0" fill="#FEFEFE"/>
<path transform="translate(1295,1330)" d="m0 0" fill="#FEFEFE"/>
<path transform="translate(1429,1098)" d="m0 0" fill="#FEFEFE"/>
<path transform="translate(1439,1075)" d="m0 0" fill="#FEFEFE"/>
<path transform="translate(1443,1070)" d="m0 0" fill="#FEFEFE"/>
<path transform="translate(1447,1065)" d="m0 0" fill="#FEFEFE"/>
<path transform="translate(1449,1061)" d="m0 0" fill="#FEFEFE"/>
</svg>
